<svg width="200" height="200" viewBox="0 0 200 200" fill="none" xmlns="http://www.w3.org/2000/svg">
<rect width="200" height="200" rx="100" fill="#333333"/>
<path d="M117.277 169.057C115.835 170.436 114.674 171.551 113.513 172.665C113.584 172.771 113.654 172.877 113.742 172.984C113.021 173.037 112.3 173.072 111.579 173.125C111.28 173.143 110.822 173.125 110.717 173.302C109.099 176.097 106.548 174.328 104.438 174.646C103.857 172.311 100.586 174.116 100.041 171.745C98.1586 171.427 96.8747 170.543 97.1033 168.278L96.6284 168.579C96.2238 167.942 95.8369 167.306 95.4324 166.651C95.0454 166.032 94.6409 165.431 94.3243 164.776C94.0956 164.334 93.8846 163.821 93.8846 163.343C93.8318 161.097 93.867 158.85 93.867 156.392C91.6156 156.286 89.6457 156.197 87.8341 156.109C85.3541 153.65 82.9972 151.298 80.3765 148.715C80.3765 148.167 80.4293 147.247 80.3765 146.327C80.3238 145.531 80.4293 144.753 79.3036 144.311C78.2659 143.886 78.3363 136.687 79.3916 136.192C81.1329 135.36 80.0424 133.963 80.3238 133.132C79.2157 132.159 78.2835 131.327 77.105 130.284C76.7884 129.488 77.6327 127.719 75.5924 127.436C75.4693 127.418 75.3814 126.799 75.3462 126.445C75.2231 124.836 75.4517 123.297 74.027 121.846C73.3411 121.156 73.7808 119.264 73.8512 117.937C73.904 117.053 73.6401 116.062 74.9065 115.479C75.3462 115.266 75.1879 113.833 75.3286 112.949C75.4869 112.029 75.4693 111.304 76.4543 110.437C77.5272 109.5 79.6378 108.244 78.3011 105.644C76.3664 105.644 74.2205 105.644 72.0571 105.644C69.8937 105.644 67.8183 105.644 65.4966 105.644V115.337C67.1324 116.027 68.5218 116.947 68.8032 119.034C68.9088 119.848 69.4892 120.608 69.7179 121.103C69.2078 122.625 68.7505 124.022 68.1701 125.738C67.3962 126.092 65.6373 125.313 64.9514 127.224C64.8458 127.542 62.3482 127.595 62.1724 127.206C61.416 125.579 60.0617 125.915 58.7074 125.738C58.637 125.083 58.6371 124.411 58.4612 123.792C58.3029 123.297 58.0039 122.784 57.6169 122.465C56.7199 121.705 56.7375 119.724 57.74 119.087C58.0215 118.91 58.4964 118.645 58.4612 118.468C58.1798 115.991 59.7627 115.532 61.7502 115.514V105.538C59.411 105.538 57.1948 105.608 54.9786 105.485C54.4686 105.467 54.0113 104.795 53.5012 104.441C53.0263 104.105 52.5162 103.804 52.3403 103.327C51.6896 102.371 50.986 101.434 50.388 100.443C50.1945 100.125 50.1945 99.6297 50.1945 99.2228C50.1769 97.5247 50.1945 95.8267 50.1945 93.8986C47.5035 93.8986 45.0938 93.7394 42.7018 93.9871C41.8575 94.0755 40.8023 95.0484 40.4329 95.8797C40.0459 96.7465 39.0258 97.0825 38.9026 97.5071C38.3574 99.1875 37.1262 98.6215 36.1237 98.6922C35.1563 98.763 34.1538 98.7983 33.2216 98.6214C32.6763 98.5153 32.219 97.967 31.6914 97.6309C31.2165 97.3302 30.724 97.0825 30.126 96.7465V89.7949C31.9376 86.3457 34.6462 86.9294 37.1614 86.9294C38.1463 86.9294 41.6993 90.5025 42.0159 91.8114H50.0714V78.4566C47.5386 78.4566 44.918 78.1736 42.4028 78.5982C41.3651 78.775 40.5736 80.4377 39.3072 81.8174H32.4301C31.5858 81.0745 31.0757 80.6323 30.5657 80.1901C30.5305 80.1547 30.4425 80.1724 30.3898 80.137C29.7038 79.5533 30.0028 73.84 30.6712 73.2386C31.6562 72.3365 32.3949 70.9214 33.5381 70.4969C34.8397 70.0016 36.6689 69.8778 37.8649 70.4615C39.2544 71.1513 40.0459 72.9202 41.5937 73.6985C41.8223 73.8046 41.7872 74.4767 41.8927 74.9897H50.1066V61.7764H42.139C41.3299 62.767 40.5736 63.7222 39.7645 64.7304C37.9881 65.7033 36.282 67.7021 33.9251 66.2163C33.3095 65.7917 32.5356 65.5087 32.1311 64.9427C31.4275 63.9698 29.9501 63.5984 30.0556 62.0064C30.1611 60.3083 30.0732 58.5925 30.0732 57.4074C30.8119 56.4699 31.1988 55.8685 31.7089 55.3732C32.0079 55.0902 32.4828 54.8249 32.8874 54.8072C35.1739 54.7541 37.478 54.7895 39.7118 54.7895C40.5736 57.372 41.9103 58.2918 44.5662 58.2918C46.3778 58.2918 48.1895 58.2918 50.1594 58.2918V52.4016C51.5841 50.8627 52.6921 49.6599 54.1344 48.1033C54.9258 47.9441 56.5088 48.3509 57.3355 46.6352C57.5114 46.2814 58.8129 46.476 59.5868 46.4583C60.2904 46.4406 61.0115 46.4583 61.8206 46.4583V38.5516C60.2024 36.995 58.3556 35.8098 57.3355 34.1118C55.9988 31.9184 57.529 29.8842 58.9888 28.1861C59.5517 27.6378 60.1673 27.0541 61.0819 26.1697H66.2881C67.1675 27.0364 67.8183 27.6555 68.5394 28.3453C68.8208 29.4066 69.155 30.6979 69.542 32.1837C69.2606 33.1743 68.856 34.5363 68.4339 36.0044C67.5896 36.6766 66.6047 37.4549 65.4439 38.3747V46.3168H78.5297V38.074C76.7005 38.0032 75.8915 37.048 74.9944 35.403C74.3261 34.2002 73.9919 33.1566 73.7105 31.8653C73.2532 29.7427 75.0648 28.9998 75.8914 27.7439C77.0874 25.9043 79.1805 25.8513 81.2032 26.1166C82.2409 26.2581 83.5777 25.7451 83.8591 27.514C83.8943 27.797 84.7561 27.9562 85.4245 28.2746V35.969C84.6506 36.3582 83.1555 36.0221 83.7711 37.6318C81.6722 38.0563 80.6169 39.2827 80.6052 41.311C80.6052 42.8322 80.6052 44.3534 80.6052 46.1753C82.2234 46.2814 83.7535 46.4229 85.3013 46.4406C87.7285 46.4937 90.1558 46.4583 92.583 46.476C93.4449 46.476 94.166 46.4406 94.1308 45.2555C94.0781 42.8852 94.1308 40.515 94.1308 38.5339C92.8117 37.4726 91.8267 36.6766 90.6307 35.686V28.4868C91.4925 27.7086 92.1433 27.1425 92.7941 26.5765C92.7237 26.4173 92.6534 26.2404 92.583 26.0812C94.3946 26.0812 96.2415 25.8513 97.9827 26.1697C98.9501 26.3466 99.7768 27.4432 100.603 28.1861C101.113 28.6637 101.5 29.2651 102.274 30.2203V33.9526C100.691 35.5091 99.2667 36.9419 97.3319 38.8523C97.3319 41.1871 97.2791 44.2826 97.3847 47.3604C97.3847 47.838 98.1234 48.2802 98.8797 49.1469C97.5782 49.3769 96.5405 49.7306 95.5027 49.7306C83.1731 49.766 70.8435 49.8545 58.4963 49.6776C56.3857 49.6422 55.4007 51.1103 53.8705 51.8002C53.6067 51.924 53.6067 52.8084 53.5891 53.3568C53.5539 55.9216 53.5716 58.4864 53.5716 61.0512C53.5716 73.5216 53.6595 85.9742 53.4836 98.4446C53.4484 100.443 54.8028 101.328 55.7174 101.929C58.7778 103.928 58.9009 103.733 63.4739 103.733C68.6449 103.733 73.7984 103.733 78.9694 103.733C80.869 103.733 82.1002 102.248 82.1002 100.337C82.0827 97.4186 82.1881 94.4823 82.3288 91.5637C82.3464 91.1392 82.8917 90.7147 83.2083 90.3256C83.3138 90.2017 83.648 90.1664 83.648 90.0956C83.6304 88.486 84.3692 87.3539 85.5476 86.2749C86.1632 85.7266 87.9748 83.7455 88.8366 83.6393C89.6809 83.5332 90.49 83.657 90.9649 82.4365C91.1759 81.8882 92.7413 81.8705 93.9901 81.5344C93.9901 79.5002 93.9021 77.3069 94.0429 75.1312C94.078 74.3883 94.6584 73.6985 95.1861 73.044C96.0831 72.1773 94.7816 70.4792 96.9626 69.9308C97.8948 69.6832 98.44 67.9851 99.2139 66.8707C101.184 66.1101 103.259 65.3142 105.616 64.3944V51.7648C104.086 50.8096 102.608 49.8722 100.797 48.7224C101.659 48.2094 102.521 47.7141 103.541 47.095C104.174 47.5726 105.282 48.4925 106.443 49.3238C108.413 50.7389 109.345 52.5077 109.134 55.0725C108.888 58.2388 109.063 58.2565 112.282 58.2565C113.918 58.2565 115.554 58.2742 117.207 58.2565C117.752 58.2565 118.28 58.0973 118.931 58.0088C119.071 57.1244 119.23 56.24 119.441 55.0018H127.109C127.707 55.6209 128.323 56.2754 129.273 57.2482V64.6066C127.954 65.2611 126.195 64.359 125.65 66.3754C125.579 66.6585 122.8 66.7646 122.624 66.3754C121.903 64.7481 120.602 65.1019 119.441 64.8896C119.37 64.8012 119.247 64.7127 119.23 64.6066C119.019 62.6255 117.911 61.629 115.905 61.6173C113.724 61.6173 111.544 61.6173 109.239 61.6173V64.8719C110.224 64.9427 111.121 64.9957 111.79 65.0311C114.217 67.4721 116.521 69.7893 119.142 72.4249C119.142 72.814 119.089 73.6631 119.142 74.4944C119.23 75.4496 118.843 76.5994 120.285 77.0416C120.566 77.13 120.672 78.0144 120.707 78.5274C120.795 79.5533 120.813 80.5969 120.813 81.6406C120.813 107.006 120.813 132.353 120.813 157.718C120.813 158.868 120.953 160.106 120.602 161.168C120.074 162.813 118.561 164.157 119.054 166.138C117.436 166.704 117.506 168.172 117.383 169.039L117.277 169.057ZM91.387 85.2136C89.2412 87.3008 87.4999 88.9989 85.4948 90.9623C85.2662 92.3951 85.9697 94.5354 83.8943 95.7913C83.7887 95.8444 83.859 96.1451 83.8063 96.3219C82.7158 99.6474 85.7234 102.159 85.5651 105.29C85.5651 105.378 85.8642 105.467 85.9697 105.591C86.3391 106.104 87.0074 106.652 86.9723 107.147C86.8316 108.934 88.8894 109.022 89.294 110.402C89.4699 110.986 90.4372 111.339 91.0528 111.799L90.8593 112.135C91.7563 112.206 92.6534 112.277 93.6384 112.365C93.7791 112.861 93.9021 113.356 93.9197 113.409C96.857 114.311 99.4426 115.107 102.204 115.956C102.169 116.292 102.134 116.787 102.098 117.283H94.0429C93.9197 116.681 93.8142 116.186 93.7263 115.673C93.6207 115.797 93.5152 115.921 93.4097 116.045C92.1785 115.372 90.9297 114.736 89.7161 114.028C89.3291 113.798 89.0477 113.409 88.7135 113.091C88.4497 112.843 88.221 112.578 87.9572 112.33C87.1306 111.569 86.2687 110.844 85.4948 110.03C84.7033 109.199 84.0525 108.244 83.261 107.413C83.1731 107.324 82.5575 107.589 82.2937 107.819C81.7836 108.297 81.3439 108.845 80.869 109.376C80.4469 109.588 80.4293 110.384 80.2006 110.437C78.6001 110.88 78.8111 112.171 78.6528 113.338C78.6177 113.604 78.4242 114.028 78.2483 114.063C76.8764 114.258 77.1226 115.372 77.105 116.186C77.0347 118.379 76.7533 120.661 77.2106 122.766C77.5447 124.305 78.8464 125.632 79.0222 127.347C79.0222 127.401 79.2685 127.401 79.3388 127.489C80.2183 128.373 81.0801 129.275 81.9771 130.16C82.8038 130.974 83.6656 131.734 84.5099 132.53C84.8441 132.849 85.1606 133.167 85.4596 133.521C85.6707 133.751 85.7938 134.069 86.0225 134.264C87.1305 135.219 88.2738 136.156 89.3995 137.094C89.3291 137.218 89.2588 137.359 89.1708 137.483H91.6508C92.5479 135.679 93.0755 133.857 94.2364 132.654C94.7816 132.088 95.3444 131.663 95.5555 130.867C96.048 129.063 97.8244 127.648 99.6712 127.401C100.85 127.241 101.993 126.87 103.382 126.534C103.681 126.764 104.367 127.294 105.018 127.843C105.176 127.984 105.37 128.356 105.317 128.426C105.106 128.674 104.825 128.975 104.543 128.992C103.294 129.134 102.028 129.187 101.289 129.24C99.7943 130.761 98.6159 131.964 97.93 132.654C96.5229 135.007 95.4499 136.828 94.3594 138.668C94.764 139.216 95.3268 139.995 95.9952 140.879C96.8395 140.932 97.8772 140.932 98.8973 141.056C99.4074 141.109 100.269 141.321 100.322 141.569C100.586 142.949 101.624 142.648 102.45 142.666C104.068 142.719 105.704 142.666 107.604 142.666C107.393 143.904 107.234 144.894 107.058 146.009C105.563 145.903 103.787 146.292 103.013 145.584C101.694 144.346 100.34 144.576 98.9149 144.434C97.6134 144.311 96.048 144.806 95.45 142.931C95.3972 142.754 94.7992 142.719 94.4474 142.701C93.7263 142.648 93.0051 142.63 92.2312 142.595C92.1961 140.065 90.0502 141.41 89.0301 140.72C88.8366 140.26 88.7839 139.694 88.4673 139.446C87.4472 138.615 86.0928 138.102 85.3189 137.111C84.4219 135.962 83.4897 136.015 82.1178 136.139C82.1178 137.43 81.9419 138.668 82.153 139.835C82.5575 142.064 80.8514 144.771 83.5952 146.504C83.7535 146.61 83.6656 147.088 83.6832 147.388C83.7536 147.99 83.8063 148.574 83.8767 149.175C84.0174 149.087 84.1581 148.998 84.2988 148.91C84.8265 149.546 85.3365 150.183 85.8466 150.82C86.2863 151.209 86.726 151.651 87.2185 152.023C87.5527 152.288 87.9572 152.677 88.3442 152.677C91.5453 152.713 94.7464 152.677 97.9475 152.624C98.2993 152.624 98.7214 152.341 98.9852 152.058C100.111 150.926 101.166 150.749 102.31 152.058C102.556 152.341 103.048 152.377 103.4 152.553C104.789 153.226 107.041 151.846 107.656 154.358C109.873 154.764 110.119 157.506 112.089 158.249C112.212 158.302 112.089 158.992 112.089 159.487H109.257C108.36 158.391 107.568 157.382 106.847 156.498C105.845 156.215 104.279 156.197 104.068 155.649C103.593 154.411 102.767 154.428 101.94 154.535C100.129 154.782 98.1058 153.668 96.6284 156.197C95.9952 157.294 95.4148 158.656 95.8721 159.08C97.5254 160.602 96.857 162.459 97.1209 164.175C97.2088 164.758 97.2088 165.59 97.5782 165.873C98.827 166.846 99.6536 168.084 100.586 169.322C101.201 170.136 102.222 170.949 103.189 171.144C104.825 171.48 106.654 171.02 108.254 171.445C110.33 171.993 111.227 170.171 112.177 169.393C113.689 168.119 115.694 166.74 115.835 164.281C115.835 163.998 115.993 163.556 116.187 163.485C117.453 163.043 117.225 161.981 117.225 161.044C117.225 151.209 117.225 141.374 117.225 131.522C117.225 113.798 117.225 96.0743 117.225 78.3682C117.225 77.4484 117.365 75.8741 117.014 75.7503C115.079 75.0428 115.905 73.3093 115.184 72.3364C114.622 71.7173 114.059 71.1159 113.496 70.4969C113.496 70.4969 113.496 70.4969 113.478 70.4969C112.845 69.8601 112.229 69.241 111.368 68.3742C110.506 68.1797 108.993 68.7988 108.184 67.083C108.026 66.7646 106.038 66.7646 105.88 67.1007C105.071 68.7811 103.558 68.0205 102.661 68.3565C100.762 70.32 99.038 72.1065 97.1736 74.0522C97.1736 74.0522 97.1912 74.2822 97.1385 74.5298C96.8395 76.0156 97.7189 77.7491 95.9425 78.9873C95.5203 79.2703 95.6259 81.3752 96.048 81.6052C97.2264 82.2597 96.9274 83.2148 97.1209 84.0993C97.2088 84.4884 97.2264 85.1429 97.455 85.2313C98.9501 85.815 98.7214 87.1063 98.8797 88.2914C98.9677 88.9282 99.0204 89.6357 99.337 90.1487C99.7064 90.7501 100.357 91.1923 101.219 92.0413C101.043 92.0413 100.867 91.9529 101.219 92.0413C102.925 92.059 104.666 92.3243 106.302 92.006C108.272 91.6345 108.852 93.8279 110.576 93.8986C111.051 93.8986 111.772 95.0307 111.807 95.6675C111.843 96.1097 110.875 97.0295 110.4 97.0118C109.662 96.9764 108.958 96.3219 108.237 95.9328C108.307 95.7736 108.36 95.5967 108.43 95.4375H102.186C102.186 97.171 102.186 98.7983 102.186 100.426C102.186 102.053 102.186 103.698 102.186 105.308C101.078 105.467 99.1084 103.68 99.038 102.566C98.9325 100.797 98.9149 99.0283 98.7742 97.2594C98.6687 95.9151 99.3194 94.2524 97.3847 93.5449C97.2088 93.4741 97.2088 92.8904 97.1736 92.5366C96.9801 91.0862 97.6485 89.2997 95.6434 88.5214C95.4675 88.4506 95.4851 87.8492 95.4324 87.4954C95.3444 86.841 95.274 86.1865 95.1861 85.4966C94.6057 85.3905 94.1308 85.2667 93.6559 85.2313C92.7413 85.1959 91.8443 85.2313 91.3518 85.2313L91.387 85.2136ZM62.3131 117.477C62.3131 117.601 62.3307 117.725 62.3482 117.831C61.6975 118.362 60.906 118.786 60.4135 119.441C59.5692 120.555 61.2753 123.951 62.7176 124.004C63.5443 124.04 64.4589 123.881 65.1976 123.527C65.7604 123.244 66.0946 122.519 66.7806 121.705V119.299C66.6574 119.388 66.5519 119.458 66.4288 119.547C65.8308 118.945 65.2327 118.326 64.4061 117.477H62.2955H62.3131ZM38.3046 77.7845C38.6916 72.9555 38.2519 73.1324 33.9779 73.5039C33.2919 74.2822 32.7818 74.7951 32.3773 75.3788C32.1838 75.6619 32.0255 76.1571 32.1486 76.4578C32.5356 77.3953 33.0809 78.2621 33.503 79.1818C33.8899 79.9955 36.0885 80.4024 36.6161 79.7302C37.0734 79.1642 37.5659 78.6512 38.3046 77.7845ZM36.3523 56.9298C36.2996 56.6822 36.2468 56.4345 36.194 56.1869C35.297 56.6291 34.2417 56.9298 33.5381 57.5843C32.8874 58.2034 32.5356 59.2116 32.1662 60.0784C32.0431 60.3791 32.1311 60.892 32.3245 61.175C32.7467 61.7765 33.2743 62.3071 34.0658 63.1915C34.8045 63.1561 36.0709 63.2976 37.179 62.9616C37.7242 62.8024 38.2871 61.7588 38.3398 61.1043C38.3926 60.1491 38.0936 59.1055 37.7242 58.2034C37.5132 57.6728 36.8448 57.3544 36.3699 56.9298H36.3523ZM127.004 61.2458C128.657 58.8579 125.632 58.398 125.28 56.6468H123.134C122.255 57.5312 121.675 58.1326 121.076 58.734C119.81 60.6267 121.463 61.8649 122.554 62.9262C123.029 63.3861 124.647 62.8377 125.667 62.5194C126.195 62.3602 126.564 61.688 127.004 61.2458ZM60.5014 34.5893C61.8206 34.5893 62.9638 34.5893 64.1071 34.5893C64.5292 34.5893 64.9689 34.5893 65.3559 34.4655C65.7956 34.3417 66.3585 34.2179 66.5871 33.8818C67.5369 32.5375 66.1122 29.5128 64.4413 29.4951C60.0266 29.4243 60.1848 29.2828 60.3431 33.3865C60.3431 33.6872 60.4135 33.9703 60.4839 34.5893H60.5014ZM38.2871 90.3433H33.415C33.503 90.4848 33.5909 90.6086 33.6964 90.7501C33.2391 91.2277 32.6939 91.6522 32.3597 92.2182C32.1662 92.5366 32.1486 93.1557 32.3245 93.4741C32.6763 94.0932 33.2391 94.6062 33.8723 95.3491H38.2871V90.3433ZM94.4474 34.4832H98.6335V29.5305H94.5881C93.7438 30.3795 93.181 30.804 92.8292 31.3524C92.6358 31.6708 92.6182 32.3075 92.8117 32.6259C93.1635 33.2096 93.7087 33.6696 94.465 34.4832H94.4474ZM82.2585 34.5363C82.1706 32.679 82.1002 31.087 82.0299 29.5481H77.1754V34.5363H82.2585Z" fill="#00BFFE"/>
<path d="M151.907 81.925C152.28 82.3129 152.743 82.8065 153.242 83.2825C153.402 83.4412 153.669 83.6879 153.829 83.6527C155.698 83.212 156.481 84.9925 157.798 85.6272C158.741 86.0679 159.204 87.4253 159.97 88.2892C160.326 88.6946 160.877 88.9238 161.554 89.3645C161.554 89.8405 161.536 90.5104 161.554 91.1627C161.571 91.5153 161.625 92.1323 161.785 92.1676C163.868 92.6436 163.173 94.3183 163.209 95.5524C163.28 98.3554 163.173 101.141 163.12 103.944C163.102 104.861 162.835 105.848 164.312 105.865C164.508 105.865 164.704 106.236 164.882 106.43C165.291 106.87 165.701 107.329 166.359 107.558C167.196 109.056 168.032 110.537 168.869 112.036C168.905 112.053 168.922 112.071 168.958 112.106C169.296 112.829 169.901 113.534 169.919 114.257C170.026 117.783 170.008 121.309 169.972 124.852C169.972 125.31 169.439 125.751 169.225 126.227C168.816 127.126 168.46 128.025 167.89 128.836C167.445 129.63 166.964 130.405 166.537 131.216C166.395 131.481 166.413 131.992 166.253 132.045C164.152 132.785 164.971 134.495 164.935 135.888C164.882 139.361 164.9 142.816 164.882 146.289C164.882 147.047 164.918 147.647 163.885 148.105C163.28 148.387 163.262 149.956 162.817 150.785C162.39 151.331 162.052 152.142 161.5 152.371C160.219 152.882 160.041 154.786 158.279 154.716C157.745 154.698 157.193 155.386 156.606 155.721C156.178 155.968 155.733 156.285 155.271 156.32C154.06 156.408 152.85 156.355 151.284 156.355C151.284 158.259 151.355 159.952 151.248 161.626C151.213 162.138 150.643 162.614 150.358 163.125C150.145 163.513 149.842 163.901 149.789 164.306C149.646 165.452 149.611 166.598 149.557 167.391C147.599 169.383 145.873 171.129 143.808 173.227C143.079 173.42 141.548 172.645 140.64 174.496C140.355 175.06 138.344 174.901 137.134 174.848C136.048 174.795 134.731 175.307 134.055 173.614C133.859 173.121 132.186 173.209 131.438 173.068C129.605 171.199 127.896 169.472 126.188 167.726C125.422 166.827 126.543 164.994 124.461 164.535C124.336 164.5 124.283 163.989 124.283 163.689C124.23 162.896 124.212 162.102 124.212 161.309C124.212 133.367 124.212 105.442 124.212 77.5001C124.212 76.5305 123.909 75.4728 125.226 74.8557C125.618 74.6795 125.636 73.6746 125.814 73.0399C126.081 72.0703 125.671 70.7658 127.291 70.5013C127.522 70.4661 127.611 69.567 127.647 69.4965C128.395 68.7032 128.857 68.139 129.409 67.663C129.694 67.4162 130.068 67.2576 130.441 67.1518C131.349 66.8521 132.648 67.2576 132.809 65.7062C132.809 65.5828 133.432 65.4594 133.77 65.4594C136.724 65.4418 139.661 65.4594 142.42 65.8825C143.132 66.3232 143.862 66.7287 144.538 67.187C145.57 67.8922 146.887 68.4211 147.528 69.3907C148.24 70.4661 149.006 71.7001 149.486 72.7755C150.768 75.5785 151.177 78.7871 151.978 81.9956L151.907 81.925ZM158.848 134.337C159.792 133.526 160.361 133.05 160.931 132.574C161.696 131.904 162.515 131.287 163.173 130.511C163.957 129.594 164.348 128.096 165.309 127.655C166.875 126.915 166.555 125.786 166.662 124.641C166.751 123.671 166.893 122.913 167.605 121.961C168.299 121.027 167.837 119.158 167.676 117.73C167.587 117.025 166.858 116.39 166.733 115.685C166.555 114.698 166.697 113.658 166.697 113.146C164.508 111.119 162.711 109.427 160.575 107.434C160.219 108.739 159.97 109.62 159.863 109.991C158.35 111.524 157.14 112.741 155.947 113.957C154.221 114.997 152.245 115.703 150.305 116.443C150.109 116.513 150.038 116.848 149.86 116.989C149.557 117.219 149.237 117.571 148.917 117.589C146.425 117.642 143.933 117.624 141.441 117.624C141.352 117.377 141.245 117.13 141.156 116.884C141.655 116.566 142.1 116.09 142.651 115.985C143.773 115.738 145.624 116.055 145.944 115.473C146.763 113.975 147.955 114.433 149.041 114.222C149.735 114.081 150.501 114.01 151.088 113.658C151.675 113.305 152.085 112.67 152.565 112.159C152.619 112.194 152.672 112.247 152.725 112.282C154.452 110.555 156.178 108.827 158.012 106.976C158.243 106.253 158.279 104.79 158.937 104.402C159.774 103.909 159.898 103.486 159.898 102.763C159.898 99.9068 159.845 97.0332 159.916 94.1773C159.952 92.9961 159.703 92.1676 158.35 92.1852C158.261 91.1451 158.19 90.246 158.118 89.4703C156.89 88.5889 155.484 87.9895 154.683 86.9317C153.259 85.0454 151.533 85.6624 149.771 85.6448C149.949 88.1481 147.243 89.5232 147.795 91.9384C147.813 92.0266 147.564 92.2733 147.439 92.2733C146.051 92.3439 146.46 93.4016 146.371 94.1597C146.193 95.5876 146.549 97.615 145.731 98.3378C144.307 99.5895 144.698 100.876 144.609 102.216C144.538 103.362 144.609 104.508 144.609 105.707C144.093 105.742 143.666 105.901 143.523 105.76C142.794 105.125 142.117 104.402 141.459 103.697C141.352 103.591 141.388 103.344 141.388 103.168C141.388 102.992 141.388 102.727 141.494 102.639C143.844 100.665 142.402 98.091 142.918 95.7111C140.711 95.7111 138.807 95.7111 136.92 95.7111C136.653 95.7111 136.19 95.8521 136.155 96.0107C135.639 97.8971 134.197 97.2977 132.933 97.3858V94.1773C134.072 93.9305 135.745 93.9305 135.906 93.4545C136.351 92.1147 137.258 92.3968 138.077 92.3791C140.213 92.3263 142.331 92.3615 144.324 92.3615C144.591 90.9688 144.538 89.1883 145.036 89.0296C146.478 88.536 146.247 87.584 146.389 86.6144C146.442 86.2266 146.567 85.539 146.745 85.5214C148.258 85.3451 147.955 84.1639 147.973 83.2825C148.044 81.1494 147.991 79.0162 147.973 76.8831C147.973 76.46 147.92 75.7019 147.795 75.6843C145.766 75.2965 146.745 73.5159 146.3 72.6345C145.659 72.1937 145.125 71.894 144.645 71.5062C144.218 71.1712 143.844 70.7834 143.452 70.4132C143.257 70.2193 142.918 70.0077 142.918 69.8138C142.918 68.7384 142.189 68.756 141.405 68.7208C140.498 68.6855 139.501 68.9676 139.056 67.5925C138.967 67.2928 136.707 67.187 136.618 67.4339C135.888 69.3202 134.179 68.3682 133.538 68.615C131.438 70.7481 129.712 72.5111 127.487 74.7676V81.925C127.487 99.5895 127.487 117.236 127.487 134.901C127.487 144.279 127.558 153.658 127.611 163.037C127.611 163.583 127.611 164.571 127.772 164.588C129.783 164.976 129.106 166.757 129.551 167.814C130.085 168.026 130.833 168.114 130.886 168.378C131.385 170.6 134.144 169.736 134.98 171.411C137.134 170.688 139.946 173.05 141.601 170C141.637 169.93 141.833 169.93 141.957 169.93C144.841 169.771 145.766 167.744 146.389 165.417C146.442 165.188 146.549 164.8 146.656 164.8C148.454 164.659 147.884 163.248 147.955 162.314C148.062 160.745 148.009 159.158 147.991 157.572C147.991 156.232 146.514 154.628 145.197 154.681C143.132 154.786 141.085 154.187 139.163 156.161C138.059 157.29 136.582 158.136 135.781 159.582H132.862V156.602L133.254 156.831C133.805 156.197 134.339 155.562 135.122 154.663C135.211 154.645 136.03 154.663 136.208 154.346C137.009 152.847 138.433 153.112 139.715 152.847C140.391 152.706 140.943 152.001 141.619 151.878C142.545 151.719 143.541 151.754 144.485 151.913C145.072 152.001 145.606 152.618 146.193 152.689C148.258 152.935 150.34 153.059 152.423 153.217C155.022 153.411 157.033 152.406 158.617 150.361C159.418 149.339 160.415 148.458 161.5 147.312C161.607 146.589 161.447 145.337 161.981 144.509C163.12 142.781 163.85 138.691 162.817 137.069C162.515 136.611 161.732 136.382 161.126 136.223C160.824 136.152 160.361 136.417 160.094 136.664C159.56 137.14 159.133 137.686 158.652 138.215C158.563 138.144 158.457 138.056 158.368 137.986C158.243 138.479 158.118 138.991 157.976 139.484C157.869 139.361 157.763 139.237 157.656 139.096C156.161 139.89 154.167 140.33 153.295 141.565C152.547 142.622 151.925 142.799 150.928 142.869C149.789 142.957 148.418 142.552 148.009 144.262C147.955 144.473 147.154 144.561 146.692 144.597C145.339 144.685 143.986 144.667 142.651 144.791C142.171 144.844 141.744 145.267 141.263 145.408C140.337 145.672 138.647 146.183 138.558 145.989C138.006 144.826 135.55 145.09 136.315 142.851C138.344 142.851 140.426 142.887 142.491 142.834C143.114 142.816 144.2 142.605 144.271 142.287C144.538 141.053 145.392 141.194 146.247 141.159C148.739 141.053 149.878 139.749 149.664 137.245C149.646 136.999 149.593 136.769 149.557 136.54L149.041 136.84C147.92 135.077 146.798 133.332 145.446 131.199C145.357 131.11 144.93 130.652 144.485 130.211C144.253 129.982 144.04 129.577 143.773 129.541C142.011 129.312 140.373 129.206 138.771 127.972C137.846 127.267 137.757 126.968 137.952 126.139H143.933C145.179 127.355 146.158 128.36 147.172 129.347C148.009 130.158 149.13 130.793 149.646 131.745C150.358 133.12 151.747 134.178 151.693 135.994C151.693 136.54 152.636 137.245 153.295 137.633C153.633 137.845 154.594 137.704 154.755 137.422C155.858 135.588 157.424 134.566 158.937 134.337H158.848Z" fill="#00BFFE"/>
<path d="M196 99.5C196 152.795 152.795 196 99.5 196C46.2045 196 3 152.795 3 99.5C3 46.2045 46.2045 3 99.5 3C152.795 3 196 46.2045 196 99.5ZM9.8205 99.5C9.8205 149.029 49.9714 189.179 99.5 189.179C149.029 189.179 189.179 149.029 189.179 99.5C189.179 49.9714 149.029 9.8205 99.5 9.8205C49.9714 9.8205 9.8205 49.9714 9.8205 99.5Z" fill="#00BFFE"/>
</svg>
