<svg width="200" height="200" viewBox="0 0 200 200" fill="none" xmlns="http://www.w3.org/2000/svg">
<rect width="200" height="200" rx="100" fill="#333333"/>
<path d="M88.3856 149.607C79.9309 150.581 71.4762 151.58 62.9687 151.922C55.4387 152.211 47.9616 151.711 40.5637 150.186C38.9784 149.844 37.3404 149.765 35.808 149.187C33.4829 148.292 32.6374 146.82 33.1394 144.374C33.6943 141.717 34.9361 139.35 36.0457 136.931C36.3628 136.589 36.442 136.115 36.7591 135.773C38.0537 131.749 41.4621 129.882 44.8968 128.146C46.9312 127.12 49.1241 126.358 51.2642 125.49C52.9023 124.832 54.3555 123.885 55.6501 122.702C60.3002 121.86 64.9503 121.676 69.6004 122.702C72.7181 125.385 76.4698 126.594 80.4594 127.226C86.3248 128.909 89.5217 133.17 91.4505 138.614C91.6618 139.376 91.7676 139.613 91.8997 140.429C91.9789 140.586 92.111 141.191 92.1638 141.375C92.1638 142.427 92.6394 143.374 92.93 144.347C92.9565 146.241 93.5113 148.345 91.0013 149.239C90.1294 149.371 89.2576 149.397 88.4121 149.66L88.3856 149.607Z" fill="#00BFFE"/>
<path d="M167.622 126.948C163.192 130.665 158.71 134.355 154.518 138.365C154.044 138.66 153.727 139.141 153.305 139.489C151.275 140.826 149.588 142.537 147.769 144.141C147.136 144.89 146.292 145.024 145.396 144.997C129.418 144.783 113.414 144.89 97.4102 144.97C96.3819 144.97 95.3009 144.836 95.2218 143.74C95.0636 141.601 93.8244 138.606 93.5344 137.804C93.5344 137.857 92.7435 135.718 92.5589 135.344C91.0297 132.349 89.395 129.488 86.7848 127.295C86.3102 126.894 85.8092 126.359 86.0729 125.664C86.3629 124.969 87.0484 125.049 87.7076 125.049C113.229 125.156 138.751 125.049 164.273 125.103C165.038 125.103 165.776 124.942 166.514 125.022C167.701 125.129 168.492 125.611 167.648 127.001L167.622 126.948Z" fill="#00BFFE"/>
<path d="M107.863 101.211C109.493 100.441 111.097 99.671 112.727 98.901C114.068 98.5824 115.383 97.2814 116.829 98.6355C118.459 101.662 120.063 104.663 121.693 107.689C122.061 107.981 122.114 108.512 122.482 108.804C123.139 109.734 123.665 109.787 123.77 108.512C124.007 105.91 125.006 103.149 122.298 101.131C121.93 100.866 121.667 100.494 121.851 99.9896C122.061 99.4586 122.587 99.5913 122.981 99.5913C124.532 99.5913 126.084 99.5913 127.635 99.5913C128.135 99.5913 128.713 99.5648 128.923 100.122C129.16 100.68 128.66 101.025 128.345 101.397C127.845 101.954 127.372 102.538 126.899 103.096C126.583 103.494 126.583 103.893 126.925 104.264C126.978 104.37 127.004 104.503 127.03 104.609C127.293 105.618 127.556 106.627 127.53 107.689C127.582 108.141 127.32 108.751 127.898 109.017C128.424 109.256 128.608 108.725 128.844 108.406C130.58 105.326 132.368 102.273 133.735 98.9807C134.55 97.4142 136.18 98.1045 136.969 98.4762C137.968 98.9807 138.284 99.1134 139.151 99.4321C146.986 101.689 151.798 106.787 153.27 114.274C153.559 115.814 154.112 117.301 153.98 118.92C153.77 121.257 152.981 122 150.667 122C133.814 122 116.934 122 100.08 122C97.4512 122 96.8464 121.363 97.0305 118.761C97.5563 111.725 100.633 106.123 106.417 102.087C106.838 101.689 107.495 101.742 107.863 101.237V101.211Z" fill="#00BFFE"/>
<path d="M36.5036 83.7604C35.9485 83.7604 36.0014 83.3839 36.0014 82.9804C36.0014 74.8851 36.0278 66.7628 36.0014 58.6675C36.0014 57.4572 36.3186 57 37.5875 57C47.2631 57.0538 56.9386 57.0538 66.6142 57C68.0682 57 68.2269 57.6455 68.2269 58.8557C68.2004 64.665 68.2797 70.4743 68.1476 76.2836C68.1211 78.1932 68.7291 78.8386 70.5003 78.5428C70.7383 78.5159 71.0026 78.5428 71.2405 78.5428C75.1531 78.5428 75.1531 78.5697 74.9152 82.6039C74.8623 83.6259 74.4658 83.9487 73.5405 83.9218C72.2187 83.868 70.8704 84.0831 69.6015 83.868C67.1165 83.4646 65.6361 84.6479 64.3936 86.6381C63.7063 87.7408 62.8075 88.709 61.7765 90C61.4064 87.7408 61.8822 85.7775 61.3535 83.868C61.0891 83.4646 60.6926 83.599 60.3225 83.599C52.9997 83.599 45.6505 83.599 38.3277 83.599C37.9576 83.599 37.5611 83.5183 37.2438 83.8142C37.1117 83.8142 37.0059 83.8142 36.8737 83.8142C36.7415 83.599 36.6887 83.357 36.6887 83.088C36.6887 74.9927 36.6887 66.9242 36.6887 58.8289C36.6887 58.5868 36.6093 58.3178 36.7944 58.2372C36.5036 58.7213 36.6887 59.3399 36.6887 59.9315C36.6887 67.1932 36.6887 74.4548 36.6887 81.6895C36.6887 82.3888 36.8737 83.088 36.5036 83.7604Z" fill="#00BFFE"/>
<path d="M59.438 93.196C62.7218 92.9288 66.0056 92.5282 68.7506 95.1192C71.4444 97.6836 73.1889 100.595 72.9837 104.682C72.7528 109.437 71.9319 113.898 69.2638 117.905C68.8533 118.519 68.4941 119 67.7245 119C64.4407 118.947 61.1569 118.84 57.8731 118.893C56.0003 118.92 55.4616 117.531 54.7432 116.249C51.3312 110.158 51.0746 103.961 54.1275 97.6302C54.8202 96.1877 55.8977 95.1192 57.1805 94.2377C57.8988 93.8103 58.6171 93.3829 59.438 93.196Z" fill="#00BFFE"/>
<path d="M130.408 70.1442C133.76 72.4242 135.253 75.6 134.965 79.78C134.808 82.1415 134.834 84.5301 134.913 86.9187C134.939 88.2487 134.232 89.2259 133.787 90.3388C133.446 90.6645 133.394 91.1802 133.027 91.5059C131.639 93.1888 130.329 94.926 128.863 96.5546C127.108 98.5089 124.017 98.4546 122.236 96.5546C119.984 94.1117 118.308 91.2345 116.5 88.4387C116.134 87.6244 115.977 86.7559 116.003 85.8601C116.029 82.9287 116.029 79.9972 116.003 77.0657C116.003 76.1429 116.134 75.3014 116.5 74.4871C118.229 70.9042 120.927 68.8956 124.882 69.0042C126.06 69.0313 127.239 69.1128 128.417 69.167C129.072 69.5199 129.779 69.7642 130.408 70.2256V70.1442Z" fill="#00BFFE"/>
<path d="M103.697 80.1962C102.571 78.715 101.445 77.2073 100.292 75.7261C99.6637 75.2765 98.9566 75.5145 98.3019 75.5145C89.9213 75.5145 81.5407 75.5145 73.1863 75.5145C72.5053 75.5145 71.8244 75.6732 71.1697 75.3558C70.934 74.9591 71.0126 74.5094 71.0126 74.0862C71.0126 65.5164 71.0126 56.9465 71.0126 48.3767C71.0126 47.9535 70.9339 47.5038 71.1958 47.1071C71.353 46.9748 71.5101 46.9748 71.6934 47.0542C71.9553 47.1864 72.1387 47.4245 72.2173 47.7154C72.2958 48.0064 72.2958 48.3238 72.2696 48.6147C72.2696 48.8263 72.1911 49.0379 72.1387 49.2495C72.0339 56.8936 72.0863 64.5113 72.1387 72.1554C72.2958 73.1076 71.9292 74.4036 73.5529 74.4565C86.3072 74.4565 99.0614 74.5359 111.816 74.4036C112.051 74.3507 112.261 74.3507 112.497 74.3772C113.597 75.3823 112.654 75.5145 111.947 75.541C110.218 75.6203 108.49 75.6732 106.761 75.541C105.216 75.4087 104.849 76.0171 104.954 77.4454C105.059 78.6092 105.033 79.7995 104.954 80.9633C104.195 81.1749 104.142 80.4078 103.723 80.302L103.697 80.1962Z" fill="#00BFFE"/>
<path d="M103.054 79.9052C103.562 80.0098 104.178 80.7941 104.205 79.3824C104.259 75.0688 104.339 75.0688 108.838 75.0688C109.775 75.0688 110.739 75.1211 111.676 75.0165C112.346 74.9381 112.64 74.5721 111.73 74.2323C111.167 73.6048 111.221 72.8467 111.221 72.1147C111.221 64.3504 111.167 56.6121 111.221 48.8739C111.221 48.5341 111.301 48.2203 111.408 47.8805C111.515 47.5668 111.676 47.3054 111.971 47.1485C112.239 46.9916 112.533 46.9132 112.801 47.1485C113.149 49.9719 112.935 52.8214 112.935 55.6449C112.988 61.5269 112.881 67.3829 112.988 73.265C113.015 75.095 112.426 75.644 110.632 75.4871C109.132 75.3564 107.579 75.5133 106.08 75.4348C104.794 75.3564 104.392 75.9054 104.473 77.0818C104.553 77.9445 104.5 78.8072 104.473 79.6699C104.473 80.1405 104.687 80.8202 104.071 80.9771C103.375 81.1339 103.187 80.4542 103 79.9052H103.054Z" fill="#00BFFE"/>
<path d="M113 47.471C112.765 47.471 112.555 47.471 112.32 47.4975C111.536 47.9736 110.672 48 109.809 48C97.858 48 85.9067 48 73.9291 48C73.0399 48 72.203 47.9736 71.4184 47.5239C71.2877 47.5239 71.1308 47.471 71 47.471C71.4446 46.8099 72.1246 47.0479 72.6999 47.0479C85.5667 47.0479 98.4596 47.0479 111.326 47.0479C111.902 47.0479 112.582 46.7834 113 47.4975V47.471Z" fill="#00BFFE"/>
<path d="M71 75.086C80.1016 75.086 89.2032 75.086 98.3048 75.086C98.8785 75.086 99.5567 74.5953 100 75.9583C91.0288 75.9583 82.0576 75.9583 73.0864 75.8493C72.3822 75.8493 71.5998 76.5035 71 75.086Z" fill="#0098CA"/>
<path d="M71 47C71 56.3246 71 65.6754 71 75C69.8176 74.6857 70.0541 74.2142 70.0541 73.7951C70.0541 65.2563 70.0541 56.7175 70.0541 48.1787C70.0541 47.7596 69.6599 47.2881 71 47Z" fill="#00BFFE"/>
<path d="M36 83.9727V58C36 58 36.6428 58 37 58C37 66.6758 37 75.3242 37 84C36.6428 84 36.3572 84 36 83.9727Z" fill="#0098CA"/>
<path d="M37.0263 83.8919C37.5 82.6491 38.1842 83.0814 38.7632 83.0814C45.6053 83.0814 52.4737 83.0814 59.3158 83.0814C59.8948 83.0814 60.5789 82.5951 61 84C53 84 45 83.8919 37 83.8919H37.0263Z" fill="#0098CA"/>
<path d="M113 99C114.718 97.7498 115.897 97.6762 117 98.7548Z" fill="#00BFFE"/>
<path d="M136.904 98.813C135.936 98.476 134.968 98.476 134 98.813C135.325 97.4408 136.675 98.0667 138 98.7889C137.643 99.1019 137.261 99.0297 136.904 98.813Z" fill="#00BFFE"/>
<path d="M127.525 107.862C127.592 106.893 126.723 105.992 127.091 105C128.26 105.856 127.993 106.915 127.926 107.93C127.726 108.042 127.592 108.02 127.525 107.862Z" fill="#00BFFE"/>
<path d="M128.037 108.035C128.037 108.035 128.177 108.142 128.247 108.142C128.3 109.735 128.72 108.708 129 108.566C128.982 109.381 128.825 110.124 128.387 109.983C127.809 109.806 128.055 108.743 128.037 108V108.035Z" fill="#00BFFE"/>
<path d="M137 99.034C137.467 99.034 137.967 99.034 138.433 99C139.067 99.136 139.633 99.306 140 99.9181C138.867 100.122 137.8 99.9862 137 99.034Z" fill="#00BFFE"/>
<path d="M154 140C154.087 139.381 154.5 139.119 155 139C154.826 139.524 154.5 139.881 154 140Z" fill="#00BFFE"/>
<path d="M123 109C122.1 108.952 122.033 108.476 122 108C122.7 108.143 123 108.5 123 109Z" fill="#00BFFE"/>
<path d="M36.9901 136C37.0628 136.477 36.7357 136.818 36.0086 137C35.9723 136.523 36.0086 136.091 36.9901 136Z" fill="#00BFFE"/>
<path d="M152.92 122H99C99 122 99 121.286 99 121H153C153 121 152.947 121.714 152.92 122Z" fill="#00BFFE"/>
<path d="M112 47.7836C112 56.7207 111.947 65.6579 111.921 74.595H111.947C111.338 75.135 110.623 74.865 109.961 74.865C97.9364 74.865 85.9386 74.865 73.9144 74.865C73.2258 74.865 72.5371 74.73 71.875 75C71.0804 74.406 70.7097 73.704 71.2659 72.759C70.9745 72.435 71.054 72.03 71.054 71.679C71.054 64.1998 71.054 56.7207 71.054 49.2416C71.054 48.8636 70.9745 48.4586 71.2659 48.1346C71.3188 48.0536 71.3188 47.9726 71.2659 47.8646C71.5042 46.9466 72.2458 47.0006 72.9345 47.0006C85.356 47.0006 97.7774 47.0006 110.199 47.0006C110.914 47.0006 111.603 47.0006 111.973 47.7836H112Z" fill="#00BFFE"/>
<path d="M71 47.0483C84.6579 47.0483 98.3421 47.0483 112 47C111.895 47.1932 111.79 47.4346 111.685 47.6277C111.292 48.1589 110.847 47.9658 110.427 47.9658C97.8178 47.9658 85.2085 47.9658 72.5991 47.9658C72.1797 47.9658 71.734 48.1589 71.3408 47.6277L71.0262 47.0483H71Z" fill="#00BFFE"/>
<path d="M72 47.0303C85.3247 47.0303 98.6493 47.0303 112 47.0303C112 47.3333 112 47.6061 112 47.9091C111.325 47.3939 110.571 47.4848 109.844 47.4848C97.9481 47.4848 86.052 47.4848 74.1559 47.4848C73.4286 47.4848 72.6753 47.3636 72.0519 48C72.0519 47.6667 72.026 47.3333 72 47V47.0303Z" fill="#00BFFE"/>
<path d="M72 48.0274C72 56.3516 72 64.6758 72 73C70.7495 72.5893 71.0473 71.9595 71.0473 71.3844C71.0473 64.1281 71.0473 56.8719 71.0473 49.6156C71.0473 49.0405 70.6899 48.4381 71.9404 48L72 48.0274Z" fill="#0098CA"/>
<path d="M196 99.5C196 152.795 152.795 196 99.5 196C46.2045 196 3 152.795 3 99.5C3 46.2045 46.2045 3 99.5 3C152.795 3 196 46.2045 196 99.5ZM9.8205 99.5C9.8205 149.029 49.9714 189.179 99.5 189.179C149.029 189.179 189.179 149.029 189.179 99.5C189.179 49.9714 149.029 9.8205 99.5 9.8205C49.9714 9.8205 9.8205 49.9714 9.8205 99.5Z" fill="#00BFFE"/>
</svg>
