<svg width="200" height="200" viewBox="0 0 200 200" fill="none" xmlns="http://www.w3.org/2000/svg">
<rect width="200" height="200" fill="#333333"/>
<path d="M116.717 160.395V167.054H117.813C121.782 167.054 125.747 167.05 129.715 167.054C131.857 167.054 133.333 168.431 133.336 170.403C133.336 172.351 131.841 173.763 129.705 173.763C109.902 173.769 90.0994 173.769 70.2965 173.763C68.1577 173.763 66.6693 172.351 66.6693 170.4C66.6693 168.424 68.145 167.057 70.2933 167.054C74.5898 167.05 78.8832 167.054 83.2562 167.054V160.395C82.8291 160.395 82.4115 160.395 81.9908 160.395C65.7895 160.395 49.5915 160.402 33.3902 160.389C27.8219 160.386 22.9007 157.135 20.9787 152.006C20.3795 150.406 20.0448 148.605 20.0416 146.894C19.9906 111.45 19.997 76.0072 20.0066 40.5639C20.0097 33.9247 24.2234 28.7166 30.7128 27.3046C31.7041 27.0878 32.7432 27.0113 33.7599 27.0113C77.9301 26.9986 122.097 26.9986 166.267 27.0018C173.222 27.0018 178.532 31.4035 179.829 38.218C179.989 39.0531 179.995 39.9264 179.995 40.7838C180.002 74.8374 180.002 108.894 179.995 142.948C179.995 143.569 179.995 144.223 179.817 144.806C179.332 146.387 177.774 147.254 176.062 147.002C174.574 146.782 173.391 145.402 173.378 143.789C173.356 140.847 173.372 137.905 173.372 134.96C173.372 134.6 173.372 134.24 173.372 133.797H26.6362C26.6362 134.138 26.6362 134.485 26.6362 134.836C26.6362 138.737 26.633 142.639 26.6362 146.54C26.6426 150.891 29.4921 153.724 33.8492 153.724C75.307 153.724 116.765 153.724 158.222 153.727C158.78 153.727 159.36 153.702 159.896 153.829C161.47 154.202 162.478 155.678 162.356 157.319C162.235 158.955 161.008 160.21 159.364 160.363C159.003 160.395 158.637 160.382 158.273 160.382C144.852 160.382 131.43 160.382 118.005 160.382C117.609 160.382 117.217 160.382 116.714 160.382L116.717 160.395ZM173.369 126.979V125.988C173.369 97.5887 173.369 69.1862 173.366 40.787C173.366 36.551 170.507 33.7175 166.261 33.7175C122.094 33.7175 77.927 33.7175 33.7568 33.7175C29.4602 33.7175 26.6362 36.551 26.6362 40.8731C26.633 69.2086 26.6362 97.5408 26.6362 125.876C26.6362 126.227 26.6362 126.581 26.6362 126.979H173.369ZM90.0739 167.003H109.912V160.462H90.0739V167.003Z" fill="#00BFFE"/>
<path d="M99.9609 147.037C98.839 147.037 97.7171 147.056 96.5951 147.033C94.7465 146.995 93.3313 145.574 93.3026 143.763C93.2771 141.982 94.6795 140.474 96.5282 140.429C98.8358 140.375 101.15 140.375 103.457 140.429C105.306 140.471 106.712 141.966 106.702 143.747C106.689 145.593 105.249 147.008 103.33 147.04C102.208 147.056 101.086 147.04 99.9641 147.04L99.9609 147.037Z" fill="#00BFFE"/>
<path d="M175.402 155.484C175.396 157.361 173.952 158.802 172.078 158.799C170.178 158.799 168.731 157.298 168.754 155.36C168.776 153.568 170.268 152.134 172.081 152.157C173.974 152.179 175.406 153.613 175.399 155.484H175.402Z" fill="#00BFFE"/>
<path d="M99.8973 120.41C81.1525 120.41 62.4078 120.41 43.6662 120.41C41.2215 120.41 39.682 118.683 40.0709 116.41C40.3291 114.915 41.5976 113.809 43.1817 113.704C43.3794 113.691 43.577 113.701 43.7778 113.701C81.2673 113.701 118.754 113.701 156.243 113.701C158.777 113.701 160.339 115.396 159.937 117.704C159.676 119.199 158.404 120.311 156.826 120.41C156.498 120.429 156.167 120.416 155.835 120.416C137.189 120.416 118.546 120.416 99.9005 120.416L99.8973 120.41Z" fill="#00BFFE"/>
<path d="M99.9036 47.0349C81.1971 47.0349 62.4874 47.0349 43.7809 47.0349C41.6964 47.0349 40.3099 45.9926 40.0517 44.2524C39.7553 42.2443 41.0684 40.5678 43.0892 40.3957C43.5163 40.3606 43.9466 40.3734 44.3769 40.3734C81.4616 40.3734 118.546 40.3734 155.634 40.3734C156.163 40.3734 156.696 40.367 157.215 40.4403C158.908 40.6762 160.062 42.1105 160.004 43.8603C159.947 45.5464 158.605 46.9297 156.922 47.0222C156.495 47.0445 156.061 47.0349 155.634 47.0349C137.058 47.0349 118.483 47.0349 99.9068 47.0349H99.9036Z" fill="#00BFFE"/>
<path d="M140.67 76.3084C140.67 73.2996 140.664 70.2939 140.67 67.2851C140.676 65.2165 142.05 63.7184 143.953 63.6866C145.881 63.6547 147.363 65.1846 147.367 67.2723C147.379 73.3538 147.418 79.4352 147.357 85.5135C147.296 91.4515 142.563 96.564 136.845 96.9943C130.505 97.4724 125.128 93.4372 124.048 87.3685C123.92 86.6577 123.869 85.9215 123.869 85.1979C123.857 79.2822 123.866 73.3665 123.86 67.4508C123.86 65.9018 124.389 64.6619 125.862 63.9926C128.115 62.9662 130.544 64.5663 130.55 67.097C130.566 73.1434 130.55 79.193 130.56 85.2394C130.563 87.4673 131.863 89.3192 133.881 90.0523C135.863 90.7758 138.063 90.2053 139.459 88.5893C140.265 87.6554 140.67 86.5621 140.67 85.3223C140.67 82.3134 140.67 79.3077 140.67 76.2989V76.3084Z" fill="#00BFFE"/>
<path d="M39.9975 76.7658C39.9975 73.5274 39.9752 70.2891 40.007 67.0508C40.0262 65.2754 41.2405 63.9335 42.9203 63.7072C44.5139 63.4937 46.1076 64.5423 46.5379 66.1424C46.6558 66.579 46.6527 67.0571 46.6527 67.5161C46.659 73.4318 46.6463 79.3443 46.6622 85.26C46.6686 87.9374 48.5396 90.0219 51.1436 90.3184C53.7572 90.6148 56.0521 88.9924 56.6418 86.3979C56.7438 85.9549 56.7533 85.4832 56.7533 85.0242C56.7597 79.0766 56.747 73.129 56.7661 67.1814C56.7757 64.7144 58.994 63.1048 61.2252 63.8921C62.5447 64.3575 63.4595 65.5655 63.4659 67.0922C63.4882 73.3362 63.5902 79.5866 63.4308 85.8274C63.2778 91.7367 58.4586 96.6739 52.8425 97.0086C46.4869 97.3879 41.164 93.4165 40.1823 87.3605C39.8668 85.4226 40.0325 83.4082 40.0039 81.4257C39.9815 79.8734 40.0007 78.3212 40.0007 76.7658H39.9975Z" fill="#00BFFE"/>
<path d="M79.4857 72.9278C80.7893 70.3397 81.9909 67.9237 83.2276 65.5236C83.881 64.2582 84.9775 63.624 86.3863 63.7132C87.7791 63.8024 88.8086 64.5228 89.3154 65.8678C89.7011 66.8878 89.5449 67.8663 89.0573 68.8289C87.2532 72.3891 85.4779 75.9622 83.6547 79.5097C83.3328 80.1344 83.336 80.6157 83.6579 81.2468C85.5097 84.8548 87.3265 88.4788 89.1242 92.1156C90.0645 94.0184 89.3091 96.0552 87.4477 96.8137C85.7807 97.4926 84.0181 96.7882 83.1352 95.0575C81.9367 92.7084 80.7606 90.3498 79.492 87.8382C78.4115 89.9769 77.398 91.9849 76.3844 93.9929C76.1772 94.4041 75.9828 94.8248 75.7597 95.2296C74.8258 96.9189 72.9197 97.5405 71.2655 96.7054C69.6304 95.883 68.9611 93.9388 69.8089 92.2176C71.6161 88.549 73.4584 84.8963 75.323 81.2563C75.6417 80.6316 75.6481 80.1408 75.3294 79.516C73.4775 75.908 71.6544 72.284 69.8503 68.6504C69.1555 67.2543 69.3563 65.8519 70.3189 64.7841C71.2177 63.7865 72.7158 63.3243 73.9206 63.9522C74.6855 64.3507 75.4282 65.0519 75.8489 65.8041C77.1207 68.0735 78.2299 70.4321 79.4889 72.931L79.4857 72.9278Z" fill="#00BFFE"/>
<path d="M119.786 57.1828C119.646 57.6896 119.541 58.206 119.366 58.7C113.899 73.9228 108.43 89.1423 102.954 104.362C102.151 106.59 100.34 107.578 98.4311 106.848C96.6972 106.185 95.8716 104.324 96.5346 102.446C97.7394 99.0295 98.9793 95.6254 100.206 92.2149C104.506 80.2496 108.803 68.2812 113.109 56.3159C114.055 53.6831 116.857 52.7875 118.652 54.6234C119.27 55.2545 119.55 56.2203 119.984 57.033C119.92 57.084 119.853 57.1318 119.789 57.1828H119.786Z" fill="#00BFFE"/>
<path d="M153.352 80.3176C153.352 75.8553 153.336 71.393 153.362 66.9308C153.371 65.2957 154.579 63.9761 156.186 63.7179C157.693 63.4757 159.281 64.4064 159.794 65.8853C159.94 66.3124 159.998 66.7905 159.998 67.2431C160.011 76.0019 160.014 84.7608 160.001 93.5196C160.001 95.6169 158.634 97.0257 156.67 97.0257C154.71 97.0257 153.359 95.6073 153.352 93.5036C153.343 89.1083 153.349 84.713 153.349 80.3144H153.352V80.3176Z" fill="#00BFFE"/>
</svg>
