<svg width="200" height="200" viewBox="0 0 200 200" fill="none" xmlns="http://www.w3.org/2000/svg">
<rect width="200" height="200" rx="100" fill="#333333"/>
<g clip-path="url(#clip0_308_388)">
<path d="M42.61 39.9887C42.6692 39.9887 42.7292 39.9879 42.79 39.9879C42.9895 39.9872 43.189 39.9864 43.3885 39.9864C43.531 39.9857 43.6742 39.9857 43.8175 39.9849C44.287 39.9834 44.755 39.9827 45.2275 39.9819C45.3895 39.9812 45.5507 39.9812 45.7127 39.9812C46.4702 39.9797 47.2352 39.9782 47.9927 39.9774C48.8702 39.9774 49.7477 39.9752 50.6252 39.9722C51.3032 39.9699 51.9827 39.9684 52.6577 39.9684C53.0627 39.9684 53.4677 39.9677 53.8727 39.9654C54.2537 39.9639 54.6377 39.9639 55.0127 39.9647C55.1522 39.9647 55.2917 39.9639 55.4312 39.9632C56.4662 39.9557 57.2012 40.0397 57.9812 40.7882C59.3462 42.3332 58.5962 45.6332 58.5962 46.9757H90.6962V42.1757C90.94 41.2832 91.246 40.6907 92.0387 40.2182C92.6882 39.9144 93.3662 39.9587 94.0637 39.9602L94.4935 39.9579C94.8805 39.9557 95.266 39.9549 95.656 39.9549C95.9807 39.9549 96.3047 39.9542 96.631 39.9534C97.396 39.9512 98.161 39.9504 98.926 39.9512C99.7135 39.9519 100.501 39.9489 101.288 39.9452C101.966 39.9422 102.646 39.9407 103.321 39.9414C103.725 39.9414 104.131 39.9407 104.536 39.9377C104.916 39.9354 105.301 39.9354 105.676 39.9377C105.815 39.9384 105.953 39.9377 106.092 39.9362C107.045 39.9264 107.825 40.0284 108.567 40.6809C110.037 42.1959 109.291 45.6159 109.291 46.9809H141.391V42.1059C141.667 41.1834 141.868 40.7559 142.681 40.2609C143.102 40.0472 143.476 39.9827 143.941 39.9842C144 39.9842 144.059 39.9834 144.121 39.9834C144.32 39.9819 144.518 39.9819 144.716 39.9819C144.86 39.9812 145.002 39.9804 145.145 39.9804C145.532 39.9782 145.917 39.9774 146.307 39.9774C146.549 39.9774 146.792 39.9767 147.034 39.9759C147.881 39.9744 148.729 39.9737 149.569 39.9729C150.356 39.9729 151.144 39.9707 151.931 39.9677C152.608 39.9647 153.281 39.9639 153.964 39.9639C154.367 39.9632 154.774 39.9632 155.171 39.9609C155.552 39.9587 155.929 39.9587 156.311 39.9602C156.45 39.9602 156.589 39.9594 156.728 39.9579C157.711 39.9504 158.581 40.0322 159.331 40.7454C159.777 41.2967 159.998 41.9154 159.998 42.6129C159.998 42.6729 159.999 42.7322 159.999 42.7929C160 42.9932 160.001 43.1927 160.001 43.3922C160.001 43.5347 160.001 43.6779 160.002 43.8212C160.004 44.2907 160.004 44.7587 160.005 45.2312C160.006 45.3932 160.006 45.5552 160.006 45.7172C160.007 46.4747 160.009 47.2397 160.01 47.9972C160.01 48.8747 160.012 49.7522 160.015 50.6297C160.017 51.3084 160.019 51.9872 160.019 52.6622C160.019 53.0672 160.019 53.4722 160.022 53.8772C160.023 54.2582 160.023 54.6422 160.022 55.0172C160.022 55.1567 160.023 55.2969 160.024 55.4364C160.031 56.4864 159.944 57.2064 159.184 57.9939C158.404 58.7222 157.354 58.6262 156.356 58.6247C156.218 58.6254 156.078 58.6254 155.939 58.6262C155.563 58.6269 155.189 58.6269 154.814 58.6269C154.499 58.6269 154.184 58.6269 153.869 58.6277C153.126 58.6284 152.384 58.6284 151.641 58.6277C150.876 58.6277 150.111 58.6284 149.346 58.6299C148.688 58.6314 148.026 58.6314 147.374 58.6314C146.981 58.6314 146.586 58.6314 146.196 58.6329C145.827 58.6337 145.457 58.6337 145.086 58.6322C144.951 58.6322 144.816 58.6322 144.681 58.6329C143.759 58.6367 142.881 58.6397 142.139 58.0104C140.609 56.4204 141.389 53.2704 141.389 51.6279H121.964V51.7779C122.054 51.8042 122.143 51.8304 122.235 51.8582C122.745 52.0284 123.218 52.2759 123.698 52.5182C123.747 52.5429 123.797 52.5677 123.847 52.5939C125.954 53.6514 127.972 54.8739 129.914 56.2014C129.98 56.2457 130.045 56.2899 130.112 56.3364C130.877 56.8592 131.619 57.3939 132.339 57.9789C132.467 58.0817 132.596 58.1829 132.727 58.2842C133.284 58.7177 133.829 59.1617 134.362 59.6267C134.486 59.7324 134.61 59.8367 134.735 59.9409C135.792 60.8334 136.782 61.7934 137.757 62.7684C137.795 62.8067 137.834 62.8449 137.874 62.8847C138.274 63.2829 138.669 63.6797 139.029 64.1147C139.119 64.2182 139.217 64.3157 139.315 64.4109C139.432 64.5332 139.432 64.5332 139.432 64.6832H139.582C139.71 64.8212 139.71 64.8212 139.868 65.0207C139.928 65.0957 139.988 65.1714 140.051 65.2487C140.084 65.2899 140.117 65.3319 140.15 65.3747C140.303 65.5652 140.457 65.7534 140.611 65.9417C141.062 66.4944 141.503 67.0517 141.946 67.6142C142.072 67.7747 142.199 67.9344 142.325 68.0949C142.743 68.6244 143.157 69.1524 143.51 69.7299C143.666 69.9849 143.831 70.2324 143.998 70.4799C144.029 70.5279 144.062 70.5752 144.095 70.6247C144.251 70.8602 144.41 71.0949 144.569 71.3274C145.058 72.0414 145.492 72.7824 145.912 73.5399C146.045 73.7769 146.179 74.0132 146.313 74.2494C146.945 75.3669 147.528 76.4994 148.061 77.6619C148.083 77.7099 148.105 77.7572 148.127 77.8067C148.767 79.2017 149.357 80.5967 149.845 82.0517C149.936 82.3164 150.029 82.5804 150.124 82.8467C150.549 84.0392 150.904 85.2317 151.211 86.4617C151.28 86.7332 151.351 87.0047 151.422 87.2717C151.708 88.3742 151.946 89.4767 152.137 90.6017C152.182 90.8657 152.23 91.1297 152.277 91.3967C152.48 92.5517 152.618 93.7067 152.725 94.8692C152.732 94.9374 152.738 95.0049 152.744 95.0747C152.823 95.9447 152.885 96.8147 152.931 97.6922C152.989 97.6914 153.046 97.6914 153.105 97.6907C153.649 97.6877 154.193 97.6854 154.74 97.6839C155.019 97.6832 155.299 97.6824 155.58 97.6809C155.85 97.6787 156.121 97.6779 156.39 97.6779C156.493 97.6772 156.596 97.6772 156.698 97.6764C157.673 97.6689 158.505 97.6854 159.248 98.3627C160.035 99.1727 160.035 100.073 160.028 101.138C160.028 101.279 160.028 101.422 160.029 101.564C160.031 101.948 160.03 102.329 160.029 102.719C160.028 103.122 160.029 103.529 160.03 103.927C160.03 104.603 160.029 105.277 160.028 105.959C160.026 106.739 160.027 107.519 160.028 108.307C160.03 108.979 160.03 109.649 160.029 110.324C160.029 110.726 160.029 111.127 160.03 111.524C160.031 111.901 160.03 112.274 160.028 112.657C160.028 112.794 160.028 112.932 160.028 113.07C160.033 114.075 159.932 114.848 159.241 115.628C158.378 116.423 157.178 116.325 156.076 116.323C155.941 116.324 155.807 116.324 155.672 116.324C155.309 116.325 154.946 116.325 154.584 116.325C154.28 116.325 153.976 116.325 153.669 116.326C152.951 116.327 152.237 116.327 151.517 116.326C150.779 116.326 150.039 116.327 149.304 116.328C148.668 116.33 148.029 116.33 147.399 116.33C147.02 116.33 146.642 116.33 146.259 116.331C145.903 116.332 145.547 116.332 145.194 116.33C145.064 116.33 144.934 116.33 144.804 116.331C143.822 116.336 142.832 116.322 142.067 115.628C141.346 114.803 141.359 113.843 141.364 112.808C141.364 112.667 141.363 112.526 141.363 112.385C141.362 112.004 141.363 111.62 141.364 111.245C141.365 110.845 141.365 110.45 141.365 110.045C141.365 109.374 141.365 108.702 141.367 108.035C141.368 107.262 141.368 106.49 141.368 105.71C141.368 104.963 141.368 104.217 141.369 103.475V102.522C141.369 102.149 141.37 101.775 141.371 101.405C141.371 101.268 141.371 101.131 141.371 100.994C141.371 100.807 141.371 100.62 141.372 100.433C141.372 100.379 141.372 100.325 141.371 100.271C141.378 99.5214 141.561 98.9507 142.067 98.3882C142.669 97.8887 143.267 97.7087 144.047 97.6974C144.14 97.6959 144.233 97.6944 144.329 97.6929C144.428 97.6914 144.529 97.6907 144.629 97.6892C144.733 97.6877 144.836 97.6862 144.941 97.6847C145.212 97.6802 145.484 97.6764 145.758 97.6727C146.036 97.6689 146.313 97.6652 146.591 97.6607C147.134 97.6532 147.678 97.6457 148.218 97.6382C148.06 95.2682 148.06 95.2682 147.768 92.9132C147.76 92.8599 147.752 92.8074 147.743 92.7527C147.257 89.6177 146.483 86.5127 145.366 83.5277C145.318 83.3927 145.269 83.2584 145.221 83.1242C144.869 82.1567 144.449 81.2192 144.021 80.2817C143.871 79.9517 143.725 79.6202 143.585 79.2842C143.273 78.5432 142.882 77.8442 142.49 77.1467C142.374 76.9382 142.262 76.7282 142.151 76.5174C141.577 75.4374 140.921 74.4249 140.239 73.4124C140.193 73.3442 140.147 73.2752 140.099 73.2047C139.488 72.2897 138.877 71.3822 138.179 70.5272C138.102 70.4312 138.024 70.3352 137.947 70.2392C137.909 70.1912 137.87 70.1439 137.83 70.0944C137.682 69.9099 137.537 69.7232 137.393 69.5364C137.071 69.1224 136.742 68.7189 136.388 68.3364C136.247 68.1827 136.109 68.0259 135.971 67.8677C135.692 67.5482 135.404 67.2399 135.109 66.9302C134.783 66.5859 134.459 66.2417 134.141 65.8877C133.852 65.5674 133.561 65.2667 133.234 64.9877C133.01 64.7964 132.795 64.5954 132.579 64.3952C132.269 64.1072 131.957 63.8237 131.634 63.5477C131.528 63.4539 131.422 63.3587 131.318 63.2619C130.92 62.8959 130.508 62.5637 130.073 62.2419C129.83 62.0634 129.593 61.8819 129.355 61.6982C129.314 61.6667 129.272 61.6352 129.23 61.6022C129.035 61.4529 128.843 61.3029 128.653 61.1492C127.865 60.5214 127.01 59.9867 126.17 59.4392C125.97 59.3094 125.771 59.1789 125.572 59.0477C124.477 58.3239 123.322 57.7127 122.152 57.1052C121.911 56.9807 121.671 56.8539 121.434 56.7204C119.739 55.7754 117.864 55.0479 116.034 54.4104C115.986 54.3932 115.938 54.3767 115.889 54.3594C114.261 53.7969 112.634 53.3319 110.954 52.9419C110.395 52.8137 109.836 52.6742 109.281 52.5332C109.282 52.5759 109.282 52.6194 109.283 52.6637C109.286 53.1159 109.288 53.5712 109.289 54.0212C109.29 54.1892 109.292 54.3579 109.292 54.5259C109.295 54.7697 109.295 55.0134 109.296 55.2572C109.297 55.3307 109.298 55.4049 109.298 55.4814C109.298 56.2389 109.241 56.9814 108.831 57.6339C108.791 57.6984 108.751 57.7637 108.71 57.8304C107.952 58.5879 107.06 58.6254 106.04 58.6329C105.909 58.6329 105.779 58.6322 105.648 58.6322C105.509 58.6329 105.37 58.6329 105.23 58.6337C104.855 58.6344 104.48 58.6344 104.105 58.6344C103.79 58.6344 103.475 58.6344 103.16 58.6352C102.418 58.6359 101.675 58.6359 100.933 58.6352C100.168 58.6352 99.403 58.6359 98.638 58.6374C97.9795 58.6389 97.318 58.6389 96.6655 58.6389C96.2725 58.6389 95.878 58.6389 95.488 58.6404C95.119 58.6412 94.7492 58.6412 94.378 58.6397C94.243 58.6397 94.108 58.6397 93.973 58.6404C93.0505 58.6442 92.173 58.6479 91.4305 58.0179C90.7322 57.2942 90.658 56.4804 90.6655 55.5204C90.6655 55.3922 90.6655 55.3922 90.6662 55.2609C90.667 54.9902 90.6685 54.7187 90.6707 54.4509C90.6715 54.2664 90.6722 54.0819 90.673 53.8967C90.6745 53.4459 90.6767 52.9967 90.6797 52.5467C88.4447 53.0574 86.2322 53.5817 84.0722 54.3692C83.8532 54.4487 83.6327 54.5244 83.413 54.6009C82.423 54.9497 81.463 55.3509 80.503 55.7784C80.4467 55.8032 80.3905 55.8287 80.3327 55.8542C78.1727 56.8142 76.0877 57.9317 74.1077 59.2217C74.0237 59.2764 73.939 59.3304 73.855 59.3852C72.8275 60.0527 71.83 60.7427 70.87 61.5152C70.6667 61.6764 70.4582 61.8317 70.249 61.9862C69.6227 62.4527 69.0265 62.9462 68.449 63.4712C68.2907 63.6144 68.131 63.7547 67.9697 63.8942C67.6577 64.1664 67.3555 64.4492 67.0547 64.7342C66.7067 65.0634 66.3557 65.3867 65.9897 65.6942C65.797 65.8697 65.6312 66.0662 65.4625 66.2649C65.3245 66.4232 65.179 66.5702 65.029 66.7179C64.7837 66.9594 64.5565 67.2122 64.3322 67.4754C64.21 67.6127 64.0832 67.7402 63.9512 67.8677C63.6047 68.2089 63.307 68.5899 63.0062 68.9702C62.9575 69.0302 62.9095 69.0909 62.8592 69.1524C62.4985 69.6009 62.1422 70.0524 61.7867 70.5024C61.6615 70.6629 61.5347 70.8219 61.4072 70.9794C60.703 71.8644 60.0947 72.8244 59.4797 73.7694C59.4362 73.8354 59.3927 73.9022 59.3477 73.9704C58.7357 74.9079 58.1852 75.8754 57.6527 76.8579C57.5515 77.0394 57.448 77.2194 57.343 77.3987C56.9027 78.1487 56.533 78.9362 56.173 79.7312C56.1482 79.7859 56.1227 79.8407 56.0972 79.8969C55.477 81.2544 54.9047 82.6269 54.4022 84.0369C54.3767 84.1089 54.3512 84.1802 54.325 84.2544C53.515 86.5269 52.9 88.8594 52.48 91.2369C52.441 91.4544 52.3982 91.6704 52.3547 91.8872C52.1132 93.1247 52.0075 94.3847 51.8905 95.6372C51.826 96.3242 51.757 97.0097 51.6872 97.6997C51.7442 97.6989 51.8005 97.6989 51.859 97.6982C52.3952 97.6952 52.9315 97.6929 53.464 97.6914C53.7392 97.6907 54.0152 97.6899 54.289 97.6884C54.5552 97.6862 54.8222 97.6854 55.0915 97.6854C55.2415 97.6847 55.3915 97.6839 55.5415 97.6824C56.4115 97.6824 57.1315 97.7507 57.8365 98.2997C58.432 98.9177 58.6015 99.6122 58.594 100.452V100.625C58.5947 100.816 58.5947 101.006 58.5947 101.197C58.5947 101.334 58.5947 101.471 58.5955 101.608C58.5962 101.979 58.5962 102.35 58.5962 102.718C58.5962 102.95 58.5962 103.183 58.597 103.415C58.5977 104.225 58.5977 105.035 58.5977 105.845C58.5977 106.603 58.5985 107.353 58.5992 108.11C58.6007 108.759 58.6007 109.408 58.6007 110.06C58.6007 110.447 58.6007 110.833 58.6022 111.223C58.603 111.587 58.603 111.952 58.6022 112.318C58.6022 112.451 58.6022 112.584 58.603 112.718C58.609 114.773 58.609 114.773 57.9107 115.56C57.2425 116.208 56.4332 116.304 55.5257 116.303C55.4702 116.303 55.414 116.303 55.3562 116.304C55.1695 116.305 54.9827 116.305 54.7952 116.305C54.661 116.305 54.5267 116.306 54.3925 116.306C54.028 116.307 53.6635 116.307 53.2975 116.308C53.0695 116.308 52.8407 116.308 52.6127 116.309C51.8987 116.309 51.1877 116.31 50.4677 116.311C49.6427 116.311 48.8177 116.312 48.0002 116.315C47.3627 116.316 46.7252 116.317 46.0877 116.317C45.7082 116.317 45.3302 116.318 44.9477 116.318C44.59 116.32 44.2322 116.32 43.8752 116.319C43.7447 116.319 43.6142 116.32 43.4837 116.321C41.4662 116.331 41.4662 116.331 40.7312 115.618C40.2017 115.076 39.9662 114.433 39.9737 113.69C39.973 113.601 39.973 113.601 39.973 113.51C39.9715 113.311 39.9715 113.111 39.9715 112.911C39.9707 112.769 39.97 112.625 39.97 112.483C39.9685 112.013 39.967 111.545 39.967 111.073C39.9662 110.911 39.9662 110.749 39.9655 110.588C39.964 109.83 39.9632 109.065 39.9625 108.308C39.9617 107.43 39.9602 106.553 39.9565 105.675C39.9542 104.997 39.9535 104.318 39.9535 103.643C39.9527 103.238 39.9527 102.833 39.9505 102.428C39.949 102.046 39.9482 101.663 39.949 101.28C39.949 101.141 39.949 101.001 39.9475 100.862C39.9407 99.8117 40.0285 99.0917 40.7875 98.3042C41.4917 97.6494 42.3625 97.6704 43.2775 97.6629C43.384 97.6614 43.4912 97.6599 43.5977 97.6584C43.876 97.6547 44.155 97.6517 44.4302 97.6494C44.7152 97.6464 45.0002 97.6427 45.2852 97.6382C45.8432 97.6314 46.4027 97.6247 46.9577 97.6194C46.9637 97.5527 46.9697 97.4867 46.9765 97.4184C47.0267 96.8619 47.0785 96.3084 47.1317 95.7534C47.1595 95.4662 47.1872 95.1782 47.2135 94.8909C47.4977 91.7934 48.0985 88.7709 48.9085 85.7409C48.922 85.6899 48.9362 85.6397 48.9497 85.5872C49.543 83.3897 50.3222 81.2222 51.2297 79.1372C51.3002 78.9744 51.3707 78.8124 51.4412 78.6504C51.6145 78.2529 51.7892 77.8554 51.9662 77.4654C52.0397 77.3004 52.1125 77.1347 52.1845 76.9689C52.564 76.1214 53.032 75.3189 53.4895 74.5089C53.6462 74.2307 53.7985 73.9509 53.9485 73.6689C54.871 71.9514 56.0035 70.3614 57.121 68.7714C57.1577 68.7197 57.1937 68.6672 57.232 68.6132C57.5372 68.1804 57.868 67.7732 58.207 67.3682C58.369 67.1717 58.5295 66.9744 58.69 66.7772C58.732 66.7262 58.774 66.6744 58.8175 66.6212C59.068 66.3129 59.3102 65.9994 59.548 65.6837C59.9275 65.1849 60.3505 64.7387 60.7855 64.2812C60.9625 64.0959 61.1335 63.9069 61.3007 63.7127C61.5707 63.4029 61.855 63.1089 62.1482 62.8202C62.2007 62.7677 62.2525 62.7152 62.3065 62.6612C62.416 62.5509 62.5262 62.4414 62.6365 62.3312C62.8022 62.1647 62.9672 61.9982 63.133 61.8317C63.643 61.3187 64.153 60.8192 64.723 60.3767C64.876 60.2537 65.0117 60.1254 65.1475 59.9844C65.4467 59.6754 65.779 59.4114 66.115 59.1444C66.2425 59.0424 66.3692 58.9397 66.496 58.8369C67.1717 58.2902 67.861 57.7644 68.5585 57.2469C68.6012 57.2154 68.644 57.1839 68.6882 57.1517C70.3832 55.9067 72.1532 54.7367 74.0057 53.7467C74.2015 53.6402 74.3957 53.5329 74.59 53.4249C75.2732 53.0462 75.955 52.6772 76.6675 52.3599C77.1062 52.1612 77.5075 51.9362 77.935 51.7029L58.585 51.6279V56.3529C58.2475 57.7029 58.2475 57.7029 57.6025 58.1829C56.77 58.6659 55.87 58.6374 54.94 58.6344C54.8005 58.6344 54.661 58.6344 54.5222 58.6352C54.1457 58.6359 53.7722 58.6359 53.3972 58.6352C53.0027 58.6344 52.6097 58.6352 52.2122 58.6352C51.55 58.6359 50.8847 58.6352 50.2247 58.6344C49.4597 58.6329 48.6947 58.6337 47.9297 58.6344C47.272 58.6359 46.6172 58.6359 45.9572 58.6352C45.565 58.6352 45.1697 58.6352 44.7797 58.6359C44.4107 58.6359 44.0425 58.6359 43.6697 58.6344C43.5347 58.6344 43.3997 58.6344 43.2655 58.6352C42.3055 58.6382 41.4055 58.6104 40.663 57.9302C40.1815 57.3212 39.9647 56.7452 39.9685 55.9652C39.9677 55.9052 39.9677 55.8459 39.967 55.7844C39.9662 55.5857 39.9662 55.3869 39.9662 55.1882C39.9662 55.0449 39.9655 54.9024 39.9647 54.7592C39.9632 54.3722 39.9632 53.9867 39.9632 53.5967C39.9632 53.3544 39.9625 53.1122 39.9625 52.8699C39.961 52.0224 39.9602 51.1749 39.9602 50.3349C39.9602 49.5474 39.9587 48.7599 39.9565 47.9724C39.955 47.2952 39.9535 46.6149 39.9542 45.9399C39.9542 45.5364 39.9535 45.1299 39.952 44.7249C39.9505 44.3454 39.9505 43.9674 39.9512 43.5849C39.952 43.4454 39.9512 43.3067 39.9505 43.1672C39.9445 42.1322 40.03 41.4047 40.7755 40.6172C41.323 40.1372 41.893 39.9909 42.598 39.9909L42.61 39.9887ZM44.65 44.7287C44.6432 44.8479 44.641 44.9679 44.641 45.0879V45.3227C44.641 45.4089 44.6417 45.4952 44.6417 45.5837V45.8612C44.6417 46.1094 44.6425 46.3569 44.6425 46.6052C44.6432 46.8377 44.6432 47.0702 44.6432 47.3034C44.6432 47.9837 44.6447 48.6684 44.6455 49.3434C44.647 50.8659 44.6485 52.3884 44.65 53.9484H53.95V44.6484C52.4275 44.6469 50.905 44.6454 49.345 44.6432C48.8635 44.6432 48.385 44.6424 47.89 44.6417C47.461 44.6409 47.461 44.6409 47.035 44.6409C46.843 44.6409 46.6517 44.6409 46.4597 44.6402C46.1695 44.6394 45.8792 44.6394 45.5897 44.6394C45.46 44.6394 45.46 44.6394 45.3287 44.6387C45.2125 44.6387 45.2125 44.6387 45.0932 44.6394C45.0257 44.6394 44.9575 44.6394 44.8877 44.6387C44.7347 44.6312 44.7347 44.6312 44.659 44.7234L44.65 44.7287ZM95.35 44.6537V53.9537H104.65V44.6537H95.35ZM146.05 44.6537V53.9537H155.35C155.351 52.4312 155.353 50.9087 155.355 49.3487C155.355 48.8679 155.356 48.3887 155.357 47.8937C155.357 47.4639 155.357 47.4639 155.357 47.0387C155.357 46.8467 155.357 46.6547 155.358 46.4627C155.359 46.1724 155.359 45.8829 155.359 45.5927C155.359 45.5064 155.359 45.4202 155.36 45.3317C155.36 45.2154 155.36 45.2154 155.359 45.0969C155.359 45.0287 155.36 44.9604 155.36 44.8907C155.367 44.7377 155.367 44.7377 155.275 44.6627C155.156 44.6552 155.036 44.6537 154.916 44.6537C154.838 44.6537 154.761 44.6529 154.681 44.6529C154.595 44.6537 154.508 44.6537 154.42 44.6537H154.142C153.895 44.6537 153.647 44.6544 153.398 44.6552H152.701C152.02 44.6559 151.336 44.6567 150.661 44.6574C148.381 44.6604 148.381 44.6604 146.056 44.6627L146.05 44.6537ZM52 102.254C51.9175 102.254 51.8357 102.255 51.7517 102.256C51.4907 102.258 51.2297 102.261 50.9717 102.264L50.4835 102.269C49.8857 102.275 49.2835 102.281 48.691 102.287C47.3485 102.302 46.0135 102.316 44.6335 102.33V111.63H53.9335V102.33C53.2832 102.284 52.6585 102.245 52.006 102.254H52ZM146.05 102.33V111.63C147.572 111.632 149.095 111.633 150.655 111.635C151.136 111.635 151.615 111.636 152.11 111.637H152.965C153.157 111.637 153.349 111.638 153.541 111.638C153.831 111.638 154.121 111.638 154.411 111.638C154.54 111.639 154.54 111.639 154.672 111.639H154.907H155.113C155.266 111.647 155.266 111.647 155.341 111.555C155.348 111.435 155.351 111.315 155.35 111.196C155.35 111.118 155.351 111.041 155.351 110.96C155.35 110.874 155.35 110.789 155.35 110.699V110.423C155.35 110.174 155.349 109.926 155.348 109.678V108.98L155.346 106.94C155.343 104.66 155.343 104.66 155.341 102.335H146.041L146.05 102.33Z" fill="#00BFFE"/>
<path d="M101.125 64.9002C101.818 65.3307 102.175 66.0402 102.565 66.7302C102.623 66.833 102.683 66.9357 102.741 67.0385C102.992 67.4772 103.237 67.916 103.46 68.3735C103.728 68.9187 104.027 69.446 104.322 69.9785C104.954 71.1035 105.582 72.236 106.197 73.376C106.457 73.8575 106.721 74.336 106.985 74.816C107.18 75.1662 107.374 75.5172 107.567 75.866C108.068 76.7735 108.572 77.681 109.09 78.581C109.485 79.2657 109.855 79.961 110.23 80.6585C110.669 81.4835 111.115 82.301 111.58 83.111C111.878 83.6367 112.168 84.1685 112.45 84.701C113.26 86.216 114.092 87.716 114.94 89.2085C115.268 89.7875 115.592 90.371 115.915 90.9485C115.954 91.0205 115.994 91.0917 116.034 91.1652C116.201 91.4682 116.364 91.7727 116.524 92.0802C116.906 92.8137 117.304 93.5352 117.709 94.2552C118.004 94.7742 118.29 95.2977 118.571 95.8227C118.886 96.4085 119.207 96.9927 119.539 97.5627C119.928 98.2452 120.304 98.9352 120.671 99.6327C120.991 100.233 121.317 100.833 121.654 101.418C122.01 102.043 122.357 102.67 122.696 103.308C122.739 103.387 122.783 103.467 122.827 103.55C123.862 105.485 123.862 105.485 123.565 106.475C123.194 107.292 122.522 107.877 121.9 108.5C121.832 108.568 121.763 108.636 121.692 108.706C121.556 108.841 121.421 108.975 121.284 109.109C120.89 109.497 120.527 109.896 120.189 110.331C120.039 110.515 119.882 110.688 119.719 110.86C119.266 111.357 118.886 111.91 118.504 112.458C118.405 112.596 118.304 112.733 118.202 112.869C115.569 116.401 114.009 120.594 112.914 124.869C112.998 124.87 113.083 124.871 113.17 124.872C113.49 124.877 113.81 124.882 114.13 124.889C114.267 124.891 114.404 124.893 114.542 124.895C116.507 124.92 118.119 125.324 119.664 126.59C119.738 126.648 119.738 126.648 119.813 126.706C121.163 127.801 121.92 129.571 122.093 131.274C122.255 133.171 121.669 134.926 120.488 136.419C120.428 136.497 120.428 136.497 120.367 136.577C119.958 137.082 119.392 137.559 118.814 137.859C118.454 138.054 118.454 138.054 118.247 138.391C118.223 138.604 118.222 138.808 118.227 139.022C118.226 139.103 118.226 139.183 118.225 139.266C118.223 139.537 118.226 139.807 118.229 140.076C118.229 140.271 118.229 140.464 118.228 140.658C118.226 141.076 118.228 141.491 118.231 141.911C118.235 142.516 118.235 143.118 118.235 143.726C118.233 144.708 118.235 145.691 118.238 146.673C118.242 147.626 118.245 148.578 118.246 149.531C118.247 149.589 118.247 149.648 118.247 149.708C118.247 150.348 118.248 150.99 118.248 151.628V151.798V152.474C118.248 153.133 118.249 153.794 118.252 154.454C118.254 154.916 118.255 155.376 118.256 155.841C118.256 156.031 118.256 156.22 118.258 156.409C118.259 156.669 118.259 156.927 118.259 157.189C118.26 157.263 118.262 157.338 118.262 157.415C118.259 158.225 118.074 158.78 117.505 159.365C117.079 159.767 116.575 160.036 115.975 160.055C115.25 159.984 114.602 159.711 114.137 159.147C113.327 158.03 113.57 156.417 113.572 155.112V154.571C113.572 154.091 113.573 153.611 113.573 153.131C113.573 152.679 113.573 152.231 113.573 151.773C113.574 150.453 113.575 149.141 113.576 147.821C113.577 144.873 113.579 141.933 113.581 138.896C100.156 138.933 100.156 138.933 86.431 138.971C86.4152 145.203 86.4152 145.203 86.4017 151.421C86.398 152.628 86.398 152.628 86.3957 153.191C86.3942 153.585 86.3935 153.978 86.3935 154.376C86.3927 154.879 86.3912 155.381 86.389 155.883C86.3882 156.068 86.3882 156.252 86.3882 156.437C86.3882 156.687 86.3875 156.936 86.3852 157.186C86.386 157.258 86.386 157.33 86.3867 157.404C86.3785 158.206 86.1887 158.761 85.6217 159.339C85.1957 159.741 84.6917 160.01 84.0917 160.029C83.3672 159.958 82.7192 159.685 82.2542 159.121C81.4367 157.996 81.688 156.354 81.694 155.034C81.694 154.851 81.6947 154.668 81.6947 154.485C81.6962 154.094 81.697 153.705 81.6985 153.308C81.7007 152.688 81.7022 152.07 81.703 151.448C81.7037 151.236 81.7037 151.023 81.7045 150.81V150.65C81.706 150.048 81.7067 149.45 81.7082 148.85V148.683C81.7105 147.791 81.7135 146.898 81.7165 146.006C81.7195 145.091 81.7217 144.168 81.7225 143.253C81.7232 142.688 81.7247 142.121 81.7277 141.558C81.7292 141.126 81.73 140.696 81.73 140.261C81.73 140.083 81.7307 139.906 81.7322 139.728C81.7337 139.487 81.7337 139.245 81.733 139.004C81.7337 138.933 81.7345 138.863 81.736 138.79C81.7367 138.407 81.7367 138.407 81.5545 138.081C81.4007 137.973 81.2485 137.867 81.088 137.769C80.6777 137.501 80.3305 137.181 79.9705 136.846C79.918 136.8 79.8662 136.754 79.813 136.707C78.6805 135.657 77.938 133.962 77.8705 132.424C77.866 132.361 77.8622 132.298 77.8585 132.234C77.794 130.291 78.5102 128.469 79.8085 127.044C80.7685 126.024 81.916 125.401 83.266 125.071C83.32 125.058 83.3747 125.044 83.431 125.03C84.1577 124.872 84.901 124.887 85.6435 124.875C85.7845 124.872 85.9255 124.869 86.0657 124.866C86.4077 124.859 86.7497 124.852 87.0932 124.846C86.9875 124.476 86.8817 124.104 86.7752 123.736C86.6897 123.438 86.605 123.138 86.5225 122.836C85.8887 120.571 85.0225 118.351 83.8675 116.296C83.7917 116.157 83.7167 116.019 83.6425 115.879C83.5675 115.743 83.4925 115.607 83.4175 115.471C83.3755 115.395 83.3335 115.319 83.29 115.24C82.375 113.605 81.3025 112.045 80.065 110.635C79.9697 110.524 79.8767 110.411 79.7845 110.297C79.1785 109.555 78.4945 108.887 77.812 108.219C76.387 106.817 76.387 106.817 76.3195 105.759C76.351 104.649 77.0672 103.667 77.602 102.729C77.9125 102.188 78.208 101.642 78.502 101.087C78.721 100.678 78.9497 100.277 79.1905 99.8795C79.3022 99.6942 79.4065 99.5052 79.5085 99.314C80.5285 97.4315 80.5285 97.4315 81.316 97.079C81.9587 96.8975 82.726 96.9215 83.326 97.211C83.914 97.5867 84.2485 98.0885 84.466 98.741C84.61 100.158 83.776 101.306 83.116 102.491C83.044 102.621 82.9727 102.751 82.9015 102.881C82.645 103.346 82.3885 103.811 82.114 104.261C81.9302 104.565 81.7532 104.859 81.6175 105.191C81.6985 105.424 81.829 105.567 82.006 105.735C82.243 105.965 82.462 106.205 82.6772 106.455C82.8272 106.627 82.981 106.795 83.1362 106.963C83.5172 107.385 83.8637 107.833 84.2087 108.283C84.3115 108.415 84.4157 108.546 84.5207 108.677C85.036 109.319 85.5107 109.982 85.9607 110.672L86.0747 110.843C86.9672 112.178 87.8147 113.543 88.5047 114.998C88.6037 115.206 88.7057 115.414 88.807 115.623C90.0895 118.278 90.997 121.068 91.627 123.948C91.645 124.029 91.645 124.029 91.6637 124.113C91.696 124.262 91.7275 124.41 91.7597 124.559C91.7912 124.764 91.7912 124.764 91.888 124.848C92.0972 124.855 92.305 124.857 92.5142 124.857C92.581 124.857 92.6477 124.857 92.716 124.857C92.941 124.857 93.1652 124.857 93.3902 124.857H93.871C94.3082 124.857 94.741 124.856 95.1835 124.855H96.5485C97.411 124.854 98.2735 124.854 99.1435 124.854C100.126 124.852 101.108 124.852 102.091 124.851C104.116 124.851 106.141 124.85 108.166 124.848C108.176 124.794 108.187 124.74 108.198 124.684C108.247 124.437 108.296 124.191 108.345 123.944C108.362 123.858 108.379 123.774 108.396 123.686C108.508 123.126 108.627 122.576 108.779 122.021C108.801 121.941 108.823 121.863 108.845 121.781C109.463 119.583 110.225 117.341 111.313 115.323C111.407 115.146 111.497 114.967 111.588 114.788C112.322 113.34 113.111 111.893 114.078 110.588C114.239 110.37 114.388 110.148 114.535 109.92C114.85 109.443 115.201 108.997 115.555 108.555C115.66 108.423 115.763 108.289 115.865 108.155C116.341 107.536 116.848 106.962 117.388 106.392C117.541 106.229 117.694 106.065 117.847 105.9C117.914 105.829 117.98 105.758 118.049 105.684C118.243 105.459 118.243 105.459 118.363 105.192C118.304 105.012 118.304 105.012 118.187 104.831C118.147 104.76 118.106 104.69 118.064 104.618C118.019 104.543 117.973 104.468 117.926 104.391C117.835 104.234 117.743 104.076 117.651 103.919C117.583 103.803 117.583 103.803 117.513 103.685C117.35 103.404 117.199 103.119 117.05 102.83C116.786 102.324 116.507 101.825 116.225 101.33C115.943 100.834 115.664 100.34 115.4 99.83C115.143 99.338 114.873 98.855 114.598 98.375C114.249 97.7615 113.909 97.145 113.578 96.5225C113.201 95.8182 112.82 95.12 112.438 94.415C112.413 94.3685 112.388 94.3227 112.361 94.2755C112.028 93.6725 111.692 93.0755 111.349 92.4755C110.959 91.7892 110.584 91.0955 110.209 90.398C109.751 89.5355 109.279 88.688 108.784 87.848C108.617 87.5652 108.464 87.2802 108.32 86.9855C108.155 86.6502 107.979 86.3217 107.795 85.9955C107.468 85.421 107.148 84.8405 106.827 84.263C106.801 84.2165 106.775 84.17 106.748 84.1212C106.352 83.4035 105.961 82.6812 105.571 81.9612C105.312 81.482 105.05 81.0012 104.783 80.5287C104.455 79.9392 104.129 79.3512 103.801 78.7587C103.547 78.299 103.295 77.8362 103.036 77.3787C103.001 77.3157 102.966 77.2527 102.929 77.1882C102.866 77.075 102.803 76.9625 102.74 76.8492C102.626 76.646 102.526 76.457 102.452 76.235L102.302 76.16V93.41C102.674 93.5217 102.674 93.5217 103.052 93.635C104.905 94.415 106.45 95.9075 107.252 97.76C107.665 98.81 107.878 99.7775 107.871 100.902C107.871 100.992 107.872 101.082 107.873 101.175C107.868 103.08 107.149 104.805 105.9 106.23C105.866 106.271 105.833 106.312 105.798 106.355C104.673 107.72 102.798 108.612 101.066 108.83C98.9132 109.031 96.8057 108.609 95.0957 107.232C94.972 107.124 94.849 107.017 94.726 106.908C94.6802 106.874 94.6345 106.839 94.588 106.803C93.1105 105.663 92.3305 103.676 92.083 101.883C91.837 99.8885 92.3725 97.8035 93.6055 96.206C94.708 94.826 95.9755 94.016 97.573 93.3335L97.648 76.1585C97.4252 76.2702 97.3922 76.4315 97.2865 76.6557C97.051 77.1417 96.7907 77.6082 96.5215 78.0807C96.1435 78.7422 95.7775 79.4082 95.419 80.0832C95.0222 80.8272 94.624 81.5682 94.204 82.3032C94.0525 82.574 93.9017 82.844 93.751 83.1132C93.7202 83.168 93.6902 83.2227 93.6587 83.2782C93.4825 83.5962 93.3085 83.915 93.1375 84.2382C93.079 84.3477 93.079 84.3477 93.019 84.4595C92.944 84.6005 92.869 84.7415 92.7947 84.8832C92.3695 85.6782 91.8047 86.5632 90.9047 86.8557C90.1397 86.999 89.4947 86.9075 88.8572 86.4815C88.321 86.069 87.9872 85.454 87.8822 84.7865C87.8605 83.9315 88.3615 83.144 88.7597 82.4165C88.813 82.3167 88.867 82.2177 88.921 82.118C89.3125 81.3942 89.7235 80.678 90.136 79.973C90.379 79.5575 90.6032 79.133 90.8252 78.7055C91.1657 78.0522 91.5152 77.408 91.8827 76.763C92.2562 76.109 92.6162 75.4505 92.9702 74.783C93.367 74.0382 93.7652 73.298 94.1852 72.563C94.3367 72.293 94.4875 72.0222 94.6382 71.753C94.669 71.6982 94.6997 71.6435 94.7312 71.5865C94.9802 71.1372 95.227 70.6865 95.473 70.2365C95.7685 69.6935 96.0647 69.149 96.3655 68.609C96.5417 68.2947 96.715 67.9782 96.886 67.664C96.991 67.4697 97.096 67.2762 97.2017 67.082C97.2535 66.9867 97.3045 66.8915 97.3562 66.7955C98.2337 65.1605 98.2337 65.1605 99.1187 64.763C99.7615 64.571 100.469 64.5935 101.084 64.886L101.125 64.9002ZM97.435 98.8752C96.8305 99.6402 96.6325 100.51 96.7135 101.47C96.811 102.071 97.0487 102.543 97.3885 103.045C97.453 103.145 97.453 103.145 97.5197 103.247C98.2037 103.95 99.0272 104.274 99.9872 104.342C100.94 104.328 101.712 103.941 102.387 103.307C103.045 102.623 103.347 101.784 103.325 100.839C103.252 99.947 102.89 99.1295 102.237 98.5145C100.737 97.2845 98.7347 97.4645 97.4297 98.8752H97.435ZM83.11 130.375C82.702 130.863 82.5407 131.44 82.564 132.07C82.6555 132.75 82.9802 133.383 83.524 133.81C84.4015 134.35 85.3915 134.301 86.3815 134.3H86.7437C87.0745 134.301 87.4052 134.301 87.7337 134.3C88.0907 134.3 88.4485 134.301 88.8062 134.301H90.9062H92.6162H92.8615H93.355C94.9 134.301 96.4375 134.301 97.9825 134.3H101.95C103.487 134.301 105.025 134.301 106.562 134.301H107.054H107.3H109.002H111.08C111.433 134.3 111.786 134.3 112.137 134.301C112.461 134.301 112.785 134.301 113.112 134.3H113.462C115.262 134.371 115.262 134.371 116.807 133.601C117.285 133.047 117.512 132.476 117.524 131.741C117.427 130.983 117.073 130.383 116.489 129.903C115.956 129.543 115.304 129.483 114.674 129.483H114.518C114.345 129.482 114.173 129.482 114 129.482C113.875 129.482 113.75 129.482 113.625 129.481C113.282 129.481 112.938 129.48 112.59 129.48C112.22 129.48 111.849 129.48 111.48 129.48C110.67 129.478 109.86 129.478 109.05 129.477C108.544 129.477 108.038 129.477 107.535 129.477C106.133 129.476 104.73 129.475 103.335 129.475H103.063C102.974 129.474 102.884 129.474 102.791 129.474H102.245H101.971C100.508 129.474 99.046 129.473 97.576 129.471C96.076 129.469 94.5685 129.468 93.0685 129.468C92.2285 129.468 91.381 129.468 90.5335 129.467C89.8142 129.465 89.0935 129.465 88.3735 129.465C88.0067 129.466 87.6407 129.466 87.271 129.465C86.935 129.464 86.5997 129.464 86.266 129.465C86.1445 129.465 86.0237 129.465 85.9022 129.464C84.7922 129.459 83.9147 129.55 83.1122 130.379L83.11 130.375Z" fill="#00BFFE"/>
<path d="M87.175 90.0247C87.7263 90.3855 88.135 90.8197 88.315 91.4722C88.4455 92.115 88.3698 92.7097 88.0503 93.2872C87.688 93.8145 87.1803 94.1572 86.5653 94.3222C85.7628 94.3935 85.1853 94.3387 84.5628 93.825C84.1285 93.4185 83.824 92.94 83.7753 92.34C83.7618 91.575 83.9335 90.99 84.4653 90.4275C85.198 89.7675 86.2728 89.55 87.1728 90.033L87.175 90.0247Z" fill="#00BFFE"/>
</g>
<path d="M196 99.5C196 152.795 152.795 196 99.5 196C46.2045 196 3 152.795 3 99.5C3 46.2045 46.2045 3 99.5 3C152.795 3 196 46.2045 196 99.5ZM9.8205 99.5C9.8205 149.029 49.9714 189.179 99.5 189.179C149.029 189.179 189.179 149.029 189.179 99.5C189.179 49.9714 149.029 9.8205 99.5 9.8205C49.9714 9.8205 9.8205 49.9714 9.8205 99.5Z" fill="#00BFFE"/>
<defs>
<clipPath id="clip0_308_388">
<rect width="120" height="120" fill="white" transform="translate(40 40)"/>
</clipPath>
</defs>
</svg>
