<svg width="200" height="200" viewBox="0 0 200 200" fill="none" xmlns="http://www.w3.org/2000/svg">
<rect width="200" height="200" rx="100" fill="#333333"/>
<path d="M20 79.2582C20.192 78.7719 20.4351 78.2856 20.5887 77.7864C21.7662 73.9854 24.3258 71.5025 28.0373 70.2739C31.5185 69.1092 34.8972 69.6084 37.9304 71.6305C40.1829 73.1279 41.9106 75.1884 42.5505 77.9144C42.8577 79.2454 43.1265 80.6276 43.1265 81.9843C43.1649 94.2706 43.1521 106.557 43.1521 118.856C43.1521 122.401 41.9874 125.473 39.351 127.866C34.0141 132.717 25.6056 131.603 21.8302 125.575C21.0879 124.385 20.4991 123.131 20.2816 121.723C20.256 121.531 20.1024 121.365 20 121.185C20 107.21 20 93.2339 20 79.2582ZM26.2328 100.311C26.2328 106.467 26.2072 112.623 26.2584 118.779C26.2584 119.765 26.5143 120.814 26.9111 121.723C27.9861 124.206 31.3905 125.268 33.7965 124.039C35.9339 122.951 36.8169 121.147 36.8169 118.843C36.8169 106.48 36.8169 94.1042 36.8169 81.7411C36.8169 81.4979 36.8169 81.2548 36.7913 81.0244C36.3946 76.9929 32.7087 75.0988 29.3939 76.5066C27.2566 77.4153 26.2584 79.2326 26.2456 81.5107C26.2072 87.7691 26.2456 94.0402 26.2456 100.299L26.2328 100.311Z" fill="#00BFFE"/>
<path d="M20 79.2582C20.192 78.7719 20.4351 78.2856 20.5887 77.7864C21.7662 73.9854 24.3258 71.5025 28.0373 70.2739C31.5185 69.1092 34.8972 69.6084 37.9304 71.6305C40.1829 73.1279 41.9106 75.1884 42.5505 77.9144C42.8577 79.2454 43.1265 80.6276 43.1265 81.9843C43.1649 94.2706 43.1521 106.557 43.1521 118.856C43.1521 122.401 41.9874 125.473 39.351 127.866C34.0141 132.717 25.6056 131.603 21.8302 125.575C21.0879 124.385 20.4991 123.131 20.2816 121.723C20.256 121.531 20.1024 121.365 20 121.185C20 107.21 20 93.2339 20 79.2582ZM26.2328 100.311C26.2328 106.467 26.2072 112.623 26.2584 118.779C26.2584 119.765 26.5143 120.814 26.9111 121.723C27.9861 124.206 31.3905 125.268 33.7965 124.039C35.9339 122.951 36.8169 121.147 36.8169 118.843C36.8169 106.48 36.8169 94.1042 36.8169 81.7411C36.8169 81.4979 36.8169 81.2548 36.7913 81.0244C36.3946 76.9929 32.7087 75.0988 29.3939 76.5066C27.2566 77.4153 26.2584 79.2326 26.2456 81.5107C26.2072 87.7691 26.2456 94.0402 26.2456 100.299L26.2328 100.311Z" fill="#00BFFE"/>
<path d="M166.566 90.2646V91.4164C166.566 101.041 166.604 110.665 166.553 120.302C166.527 124.807 164.544 128.275 160.346 130.08C156.455 131.744 152.744 131.065 149.531 128.263C148.047 126.97 146.997 125.319 146.6 123.361C146.383 122.286 146.255 121.172 146.255 120.072C146.229 110.447 146.229 100.823 146.255 91.1861C146.255 90.4438 146.037 90.239 145.321 90.2518C143.388 90.2646 141.443 90.3798 139.549 89.6887C137.219 88.844 135.44 87.385 134.148 85.3245C132.74 83.0976 132.484 80.6019 132.893 78.0934C133.277 75.8281 134.455 73.9084 136.234 72.3982C138.32 70.6193 140.764 69.877 143.49 69.877C152.078 69.8898 160.666 69.877 169.253 69.877C172.734 69.877 175.652 71.0672 177.854 73.8188C178.775 74.9835 179.479 76.2761 179.71 77.7479C179.863 78.7333 180.042 79.7444 179.991 80.7299C179.863 83.3919 178.75 85.6316 176.817 87.4618C174.718 89.4583 172.184 90.3158 169.305 90.2646C168.434 90.2518 167.551 90.2646 166.566 90.2646ZM160.295 103.549C160.295 98.1867 160.295 92.8242 160.295 87.4746C160.295 85.1325 161.523 83.9422 163.878 83.9422C165.721 83.9422 167.564 83.9038 169.394 83.9422C170.495 83.9678 171.467 83.6991 172.274 83.008C173.669 81.8305 174.257 79.9236 173.144 78.183C172.261 76.8008 171.019 76.2121 169.42 76.2121C160.704 76.2121 151.976 76.2121 143.26 76.2121C143.017 76.2121 142.774 76.2121 142.543 76.2377C140.688 76.4809 139.408 77.6967 139.075 79.2453C138.474 82.0865 140.905 84.0062 143.017 83.9422C144.988 83.8782 146.959 83.9294 148.93 83.9422C149.301 83.9422 149.685 83.955 150.03 84.0702C151.63 84.5566 152.462 85.7468 152.462 87.5385C152.462 98.4939 152.462 109.462 152.475 120.417C152.475 121.006 152.577 121.633 152.795 122.183C153.332 123.527 154.395 124.346 155.802 124.551C157.338 124.781 158.541 124.116 159.463 122.849C160.051 122.043 160.243 121.134 160.243 120.187C160.269 114.645 160.243 109.091 160.243 103.549H160.295Z" fill="#00BFFE"/>
<path d="M166.566 90.2646V91.4164C166.566 101.041 166.604 110.665 166.553 120.302C166.527 124.807 164.544 128.275 160.346 130.08C156.455 131.744 152.744 131.065 149.531 128.263C148.047 126.97 146.997 125.319 146.6 123.361C146.383 122.286 146.255 121.172 146.255 120.072C146.229 110.447 146.229 100.823 146.255 91.1861C146.255 90.4438 146.037 90.239 145.321 90.2518C143.388 90.2646 141.443 90.3798 139.549 89.6887C137.219 88.844 135.44 87.385 134.148 85.3245C132.74 83.0976 132.484 80.6019 132.893 78.0934C133.277 75.8281 134.455 73.9084 136.234 72.3982C138.32 70.6193 140.764 69.877 143.49 69.877C152.078 69.8898 160.666 69.877 169.253 69.877C172.734 69.877 175.652 71.0672 177.854 73.8188C178.775 74.9835 179.479 76.2761 179.71 77.7479C179.863 78.7333 180.042 79.7444 179.991 80.7299C179.863 83.3919 178.75 85.6316 176.817 87.4618C174.718 89.4583 172.184 90.3158 169.305 90.2646C168.434 90.2518 167.551 90.2646 166.566 90.2646ZM160.295 103.549C160.295 98.1867 160.295 92.8242 160.295 87.4746C160.295 85.1325 161.523 83.9422 163.878 83.9422C165.721 83.9422 167.564 83.9038 169.394 83.9422C170.495 83.9678 171.467 83.6991 172.274 83.008C173.669 81.8305 174.257 79.9236 173.144 78.183C172.261 76.8008 171.019 76.2121 169.42 76.2121C160.704 76.2121 151.976 76.2121 143.26 76.2121C143.017 76.2121 142.774 76.2121 142.543 76.2377C140.688 76.4809 139.408 77.6967 139.075 79.2453C138.474 82.0865 140.905 84.0062 143.017 83.9422C144.988 83.8782 146.959 83.9294 148.93 83.9422C149.301 83.9422 149.685 83.955 150.03 84.0702C151.63 84.5566 152.462 85.7468 152.462 87.5385C152.462 98.4939 152.462 109.462 152.475 120.417C152.475 121.006 152.577 121.633 152.795 122.183C153.332 123.527 154.395 124.346 155.802 124.551C157.338 124.781 158.541 124.116 159.463 122.849C160.051 122.043 160.243 121.134 160.243 120.187C160.269 114.645 160.243 109.091 160.243 103.549H160.295Z" fill="#00BFFE"/>
<path d="M117.254 100.284C117.305 115.092 105.313 127.033 90.6592 127.058C75.7877 127.084 63.8981 115.386 63.7829 100.374C63.6805 85.9758 75.4421 73.6766 90.4801 73.5999C105.224 73.5359 117.382 85.771 117.254 100.284ZM110.932 100.335C110.957 88.9962 101.755 79.9478 90.6848 79.8966C79.3584 79.8454 70.118 88.8298 70.1308 100.297C70.1436 111.585 78.9104 120.633 90.4929 120.723C101.333 120.813 110.816 112.263 110.932 100.335Z" fill="#00BFFE"/>
<path d="M117.254 100.284C117.305 115.092 105.313 127.033 90.6592 127.058C75.7877 127.084 63.8981 115.386 63.7829 100.374C63.6805 85.9758 75.4421 73.6766 90.4801 73.5999C105.224 73.5359 117.382 85.771 117.254 100.284ZM110.932 100.335C110.957 88.9962 101.755 79.9478 90.6848 79.8966C79.3584 79.8454 70.118 88.8298 70.1308 100.297C70.1436 111.585 78.9104 120.633 90.4929 120.723C101.333 120.813 110.816 112.263 110.932 100.335Z" fill="#00BFFE"/>
<path d="M91.1711 157.596C88.3043 157.353 84.9384 157.212 81.6236 156.738C78.0785 156.239 74.623 155.279 71.2315 154.064C67.0848 152.566 63.1686 150.621 59.4443 148.279C58.2668 147.536 57.5629 146.474 57.7421 144.977C57.8829 143.851 58.4972 143.07 59.4699 142.584C60.6345 142.008 61.7352 142.302 62.823 142.904C65.3443 144.286 67.8143 145.809 70.4252 146.999C72.5369 147.959 74.815 148.624 77.0675 149.264C81.4189 150.518 85.8727 151.107 90.3904 151.094C94.3323 151.094 98.2358 150.634 102.101 149.738C105.672 148.906 109.127 147.741 112.429 146.167C115.501 144.708 118.444 143.032 121.106 140.881C123.026 139.333 124.869 137.707 126.776 136.133C128.376 134.802 130.078 135.25 131.127 136.364C132.318 137.631 132.215 139.538 130.82 140.907C127.544 144.119 123.947 146.922 120.031 149.29C117.344 150.902 114.554 152.323 111.597 153.385C109.613 154.102 107.655 154.934 105.62 155.484C103.393 156.073 101.115 156.482 98.8373 156.815C96.4696 157.161 94.0764 157.314 91.1839 157.609L91.1711 157.596Z" fill="#00BFFE"/>
<path d="M91.1711 157.596C88.3043 157.353 84.9384 157.212 81.6236 156.738C78.0785 156.239 74.623 155.279 71.2315 154.064C67.0848 152.566 63.1686 150.621 59.4443 148.279C58.2668 147.536 57.5629 146.474 57.7421 144.977C57.8829 143.851 58.4972 143.07 59.4699 142.584C60.6345 142.008 61.7352 142.302 62.823 142.904C65.3443 144.286 67.8143 145.809 70.4252 146.999C72.5369 147.959 74.815 148.624 77.0675 149.264C81.4189 150.518 85.8727 151.107 90.3904 151.094C94.3323 151.094 98.2358 150.634 102.101 149.738C105.672 148.906 109.127 147.741 112.429 146.167C115.501 144.708 118.444 143.032 121.106 140.881C123.026 139.333 124.869 137.707 126.776 136.133C128.376 134.802 130.078 135.25 131.127 136.364C132.318 137.631 132.215 139.538 130.82 140.907C127.544 144.119 123.947 146.922 120.031 149.29C117.344 150.902 114.554 152.323 111.597 153.385C109.613 154.102 107.655 154.934 105.62 155.484C103.393 156.073 101.115 156.482 98.8373 156.815C96.4696 157.161 94.0764 157.314 91.1839 157.609L91.1711 157.596Z" fill="#00BFFE"/>
<path d="M92.1055 43C95.1002 43.3967 98.1078 43.7679 101.103 44.2158C104.571 44.7278 107.873 45.8028 111.162 47.0315C114.336 48.2217 117.331 49.7447 120.249 51.4213C121.49 52.138 122.258 53.7633 121.874 54.9152C121.298 56.6557 119.916 57.59 118.508 57.3085C117.472 57.1037 116.473 56.5662 115.539 56.0414C112.672 54.4032 109.677 53.1106 106.555 52.0484C100.923 50.1414 95.1258 49.3351 89.213 49.4759C85.4247 49.5655 81.7005 50.1158 78.0146 51.0373C73.4328 52.1892 69.1198 53.9809 65.0499 56.323C61.556 58.3451 58.3436 60.764 55.4384 63.5796C54.6449 64.3475 53.8642 65.1282 52.6228 65.2178C51.023 65.333 50.012 64.4627 49.5 63.4516C48.9241 62.2998 49.1673 60.828 50.1912 59.8809C52.0213 58.1915 53.877 56.4894 55.8224 54.9408C59.2395 52.2147 62.9638 49.9367 67.0081 48.2473C69.6189 47.1466 72.2553 46.0332 74.9814 45.2909C78.9744 44.1902 83.0443 43.3711 87.2037 43.2944C88.8291 43.2688 90.4545 43.2944 92.0798 43.2944C92.0798 43.192 92.1055 43.1024 92.1055 43Z" fill="#00BFFE"/>
<path d="M92.1055 43C95.1002 43.3967 98.1078 43.7679 101.103 44.2158C104.571 44.7278 107.873 45.8028 111.162 47.0315C114.336 48.2217 117.331 49.7447 120.249 51.4213C121.49 52.138 122.258 53.7633 121.874 54.9152C121.298 56.6557 119.916 57.59 118.508 57.3085C117.472 57.1037 116.473 56.5662 115.539 56.0414C112.672 54.4032 109.677 53.1106 106.555 52.0484C100.923 50.1414 95.1258 49.3351 89.213 49.4759C85.4247 49.5655 81.7005 50.1158 78.0146 51.0373C73.4328 52.1892 69.1198 53.9809 65.0499 56.323C61.556 58.3451 58.3436 60.764 55.4384 63.5796C54.6449 64.3475 53.8642 65.1282 52.6228 65.2178C51.023 65.333 50.012 64.4627 49.5 63.4516C48.9241 62.2998 49.1673 60.828 50.1912 59.8809C52.0213 58.1915 53.877 56.4894 55.8224 54.9408C59.2395 52.2147 62.9638 49.9367 67.0081 48.2473C69.6189 47.1466 72.2553 46.0332 74.9814 45.2909C78.9744 44.1902 83.0443 43.3711 87.2037 43.2944C88.8291 43.2688 90.4545 43.2944 92.0798 43.2944C92.0798 43.192 92.1055 43.1024 92.1055 43Z" fill="#00BFFE"/>
<path d="M90.6464 58.1554C93.2573 58.4369 95.9065 58.5393 98.4662 59.0385C100.859 59.4992 103.189 60.3439 105.518 61.099C108.449 62.046 111.175 63.4667 113.683 65.2328C115.987 66.8582 118.175 68.65 120.236 70.5697C122.117 72.3231 121.324 74.8187 119.34 75.7018C118.137 76.2393 116.934 75.9706 115.885 75.0619C114.349 73.7309 112.8 72.3998 111.162 71.1968C108.794 69.4306 106.222 68.01 103.406 67.0758C101.423 66.4231 99.4388 65.6808 97.4039 65.284C94.1531 64.6697 90.864 64.4649 87.5364 64.7721C84.9896 65.0152 82.4811 65.4504 80.0623 66.1927C75.5445 67.5877 71.4234 69.789 67.7887 72.835C66.7393 73.7181 65.741 74.6779 64.6403 75.497C63.7701 76.1497 62.7078 76.1113 61.7607 75.6634C60.7369 75.1899 60.0842 74.3964 59.9818 73.1805C59.8794 71.9647 60.3401 71.0432 61.1848 70.2369C65.1779 66.4103 69.7213 63.4027 74.8406 61.3293C76.7219 60.5742 78.7184 60.1135 80.6638 59.5632C83.9145 58.6289 87.2549 58.2706 90.6464 58.1426V58.1554Z" fill="#00BFFE"/>
<path d="M90.6464 58.1554C93.2573 58.4369 95.9065 58.5393 98.4662 59.0385C100.859 59.4992 103.189 60.3439 105.518 61.099C108.449 62.046 111.175 63.4667 113.683 65.2328C115.987 66.8582 118.175 68.65 120.236 70.5697C122.117 72.3231 121.324 74.8187 119.34 75.7018C118.137 76.2393 116.934 75.9706 115.885 75.0619C114.349 73.7309 112.8 72.3998 111.162 71.1968C108.794 69.4306 106.222 68.01 103.406 67.0758C101.423 66.4231 99.4388 65.6808 97.4039 65.284C94.1531 64.6697 90.864 64.4649 87.5364 64.7721C84.9896 65.0152 82.4811 65.4504 80.0623 66.1927C75.5445 67.5877 71.4234 69.789 67.7887 72.835C66.7393 73.7181 65.741 74.6779 64.6403 75.497C63.7701 76.1497 62.7078 76.1113 61.7607 75.6634C60.7369 75.1899 60.0842 74.3964 59.9818 73.1805C59.8794 71.9647 60.3401 71.0432 61.1848 70.2369C65.1779 66.4103 69.7213 63.4027 74.8406 61.3293C76.7219 60.5742 78.7184 60.1135 80.6638 59.5632C83.9145 58.6289 87.2549 58.2706 90.6464 58.1426V58.1554Z" fill="#00BFFE"/>
<path d="M59.9946 127.738C59.8922 126.394 60.6089 125.511 61.6711 124.948C62.759 124.372 63.8852 124.513 64.8835 125.242C65.4082 125.626 65.9201 126.048 66.3937 126.509C69.6316 129.645 73.4455 131.91 77.605 133.561C80.1902 134.585 82.8906 135.417 85.7063 135.57C88.4451 135.724 91.1839 135.903 93.9099 135.762C95.9321 135.66 97.9286 135.097 99.9123 134.662C102.562 134.098 105.019 133.036 107.387 131.756C110.292 130.195 112.954 128.275 115.373 126.01C115.923 125.485 116.627 125.063 117.331 124.768C118.47 124.308 119.826 124.832 120.607 125.844C121.426 126.919 121.605 128.339 120.773 129.286C119.596 130.617 118.342 131.923 116.934 132.998C114.912 134.521 112.787 135.916 110.599 137.196C108.359 138.514 105.927 139.461 103.432 140.229C101.09 140.958 98.7221 141.483 96.3032 141.854C92.8477 142.379 89.405 142.328 85.9622 142.033C84.0041 141.867 82.0716 141.355 80.1646 140.869C78.3729 140.421 76.5939 139.883 74.8789 139.231C72.0761 138.155 69.3885 136.773 66.9568 135.007C65.0499 133.625 63.2709 132.076 61.4664 130.566C60.5833 129.824 59.8538 128.966 60.0074 127.699L59.9946 127.738Z" fill="#00BFFE"/>
<path d="M59.9946 127.738C59.8922 126.394 60.6089 125.511 61.6711 124.948C62.759 124.372 63.8852 124.513 64.8835 125.242C65.4082 125.626 65.9201 126.048 66.3937 126.509C69.6316 129.645 73.4455 131.91 77.605 133.561C80.1902 134.585 82.8906 135.417 85.7063 135.57C88.4451 135.724 91.1839 135.903 93.9099 135.762C95.9321 135.66 97.9286 135.097 99.9123 134.662C102.562 134.098 105.019 133.036 107.387 131.756C110.292 130.195 112.954 128.275 115.373 126.01C115.923 125.485 116.627 125.063 117.331 124.768C118.47 124.308 119.826 124.832 120.607 125.844C121.426 126.919 121.605 128.339 120.773 129.286C119.596 130.617 118.342 131.923 116.934 132.998C114.912 134.521 112.787 135.916 110.599 137.196C108.359 138.514 105.927 139.461 103.432 140.229C101.09 140.958 98.7221 141.483 96.3032 141.854C92.8477 142.379 89.405 142.328 85.9622 142.033C84.0041 141.867 82.0716 141.355 80.1646 140.869C78.3729 140.421 76.5939 139.883 74.8789 139.231C72.0761 138.155 69.3885 136.773 66.9568 135.007C65.0499 133.625 63.2709 132.076 61.4664 130.566C60.5833 129.824 59.8538 128.966 60.0074 127.699L59.9946 127.738Z" fill="#00BFFE"/>
<path d="M55.6304 138.527C55.656 140.101 54.0562 141.752 52.4692 141.778C50.8694 141.803 49.2568 140.204 49.18 138.527C49.116 136.94 50.6518 135.353 52.3028 135.302C53.8898 135.251 55.592 136.915 55.6304 138.54V138.527Z" fill="#00BFFE"/>
<path d="M55.6304 138.527C55.656 140.101 54.0562 141.752 52.4692 141.778C50.8694 141.803 49.2568 140.204 49.18 138.527C49.116 136.94 50.6518 135.353 52.3028 135.302C53.8898 135.251 55.592 136.915 55.6304 138.54V138.527Z" fill="#00BFFE"/>
<path d="M128.785 65.2295C127.032 65.3959 125.547 63.4506 125.598 62.0172C125.65 60.4558 127.237 58.9072 128.811 58.92C130.167 58.92 131.959 60.4302 131.946 62.158C131.921 63.7066 130.462 65.3959 128.798 65.2295H128.785Z" fill="#00BFFE"/>
<path d="M128.785 65.2295C127.032 65.3959 125.547 63.4506 125.598 62.0172C125.65 60.4558 127.237 58.9072 128.811 58.92C130.167 58.92 131.959 60.4302 131.946 62.158C131.921 63.7066 130.462 65.3959 128.798 65.2295H128.785Z" fill="#00BFFE"/>
<path d="M79.0128 100.235C79.0128 93.6051 84.4265 88.6394 90.5952 88.7418C97.5447 88.8698 102.152 94.2194 102.101 100.375C102.037 106.928 96.8408 111.83 90.48 111.855C84.1833 111.868 78.8464 106.493 79.0256 100.247L79.0128 100.235ZM90.4928 105.533C93.2828 105.635 95.7657 103.217 95.7401 100.35C95.7145 97.3806 93.654 95.1281 90.544 95.0897C87.6388 95.0513 85.3479 97.3038 85.2967 100.26C85.2455 103.165 87.7028 105.597 90.4928 105.546V105.533Z" fill="#00BFFE"/>
<path d="M79.0128 100.235C79.0128 93.6051 84.4265 88.6394 90.5952 88.7418C97.5447 88.8698 102.152 94.2194 102.101 100.375C102.037 106.928 96.8408 111.83 90.48 111.855C84.1833 111.868 78.8464 106.493 79.0256 100.247L79.0128 100.235ZM90.4928 105.533C93.2828 105.635 95.7657 103.217 95.7401 100.35C95.7145 97.3806 93.654 95.1281 90.544 95.0897C87.6388 95.0513 85.3479 97.3038 85.2967 100.26C85.2455 103.165 87.7028 105.597 90.4928 105.546V105.533Z" fill="#00BFFE"/>
<path d="M196 99.5C196 152.795 152.795 196 99.5 196C46.2045 196 3 152.795 3 99.5C3 46.2045 46.2045 3 99.5 3C152.795 3 196 46.2045 196 99.5ZM9.8205 99.5C9.8205 149.029 49.9714 189.179 99.5 189.179C149.029 189.179 189.179 149.029 189.179 99.5C189.179 49.9714 149.029 9.8205 99.5 9.8205C49.9714 9.8205 9.8205 49.9714 9.8205 99.5Z" fill="#00BFFE"/>
</svg>
