<svg width="200" height="200" viewBox="0 0 200 200" fill="none" xmlns="http://www.w3.org/2000/svg">
<rect width="200" height="200" rx="100" fill="#333333"/>
<path fill-rule="evenodd" clip-rule="evenodd" d="M62.6028 149.518C62.8013 149.385 63.001 149.251 63.2815 149.354L63.3045 149.308C63.3159 149.01 63.5569 148.826 63.7519 148.734C64.5613 148.375 65.3049 147.902 66.0482 147.43C66.7272 146.998 67.4059 146.567 68.1343 146.222C68.9373 145.843 69.3618 144.272 69.1897 143.365C69.1447 143.137 69.0965 142.909 69.0484 142.682C68.9371 142.156 68.8259 141.63 68.7538 141.094C68.7459 141.027 68.7393 140.961 68.7329 140.895C68.7018 140.581 68.6723 140.283 68.5014 139.97C68.2605 139.545 68.3293 139.144 69.0406 139.086C69.4954 139.048 69.9471 138.99 70.3991 138.932C71.1556 138.835 71.9132 138.738 72.6888 138.731C74.0654 138.708 74.9832 137.606 75.2241 136.207C75.3847 135.266 75.6716 134.337 75.9813 133.43C76.2222 132.708 76.4172 131.973 76.5549 131.216C76.5653 131.169 76.5639 131.118 76.5625 131.066C76.5608 131.003 76.5591 130.94 76.5779 130.884C77.0023 129.323 76.4287 128.05 74.9488 127.247C74.5853 127.05 74.2533 126.805 73.9205 126.56C73.476 126.232 73.03 125.903 72.5052 125.687C72.161 125.549 72.0807 125.239 72.3102 124.78C72.5175 124.351 72.8319 124.029 73.1448 123.709C73.334 123.515 73.5226 123.321 73.6869 123.105C73.7094 123.076 73.732 123.047 73.7545 123.018C74.5693 121.97 75.3693 120.942 75.2241 119.446C75.1776 119.004 74.9633 118.714 74.7514 118.427C74.6498 118.289 74.5487 118.153 74.467 118C74.3372 117.763 74.2088 117.524 74.0804 117.286C73.2091 115.668 72.335 114.044 71.0253 112.734C70.3828 112.092 69.6371 111.863 68.5473 112.149L68.474 112.169C67.4045 112.45 66.2493 112.755 65.0941 112.631C64.6008 112.585 64.3255 112.298 64.314 111.805V110.107C64.3255 109.063 63.9813 108.1 63.6142 107.147C63.5569 106.998 63.4536 106.792 63.3274 106.757C62.5684 106.524 62.5935 105.968 62.6186 105.413C62.6231 105.314 62.6276 105.214 62.6276 105.117V41.5835C62.6276 41.3557 62.6176 41.133 62.6074 40.9086C62.6023 40.7939 62.5971 40.6789 62.5932 40.5625C62.5416 40.5682 62.4928 40.5768 62.4441 40.5854C62.3953 40.5941 62.3465 40.6027 62.2949 40.6084V105.105C62.2949 105.692 62.3003 105.974 62.1684 106.073C62.0292 106.177 61.7372 106.079 61.1247 105.92C60.7588 105.826 60.391 105.736 60.0228 105.646C59.4906 105.516 58.9577 105.385 58.4288 105.243C58.3579 105.224 58.287 105.204 58.216 105.185C57.1026 104.881 55.9683 104.572 54.8035 104.486C54.6151 104.72 54.3726 104.883 54.1284 105.047C53.8821 105.213 53.6342 105.38 53.4383 105.622C52.7118 106.513 52.0909 107.489 51.4742 108.459L51.3963 108.581C50.9259 109.327 50.5473 109.419 49.8819 108.891C49.14 108.301 48.3918 107.723 47.642 107.144C47.3716 106.935 47.101 106.726 46.8303 106.516C46.1879 106.023 44.8686 106.046 44.1573 106.482C43.3444 106.977 42.5235 107.455 41.7018 107.934C41.1318 108.266 40.5614 108.599 39.9929 108.937C38.9259 109.58 37.9393 110.233 37.5952 111.599C37.5159 111.91 37.6084 112.149 37.6987 112.383C37.7783 112.589 37.8561 112.791 37.8131 113.033C37.7157 113.611 37.8633 114.163 38.0123 114.721C38.1089 115.083 38.206 115.446 38.2376 115.82C38.2429 115.876 38.248 115.928 38.253 115.978C38.334 116.797 38.345 116.909 37.469 117.071C37.166 117.503 37.0781 118.004 36.9906 118.503C36.9455 118.76 36.9006 119.017 36.8265 119.262C36.6871 119.743 36.576 120.233 36.4647 120.723C36.292 121.484 36.119 122.247 35.8399 122.979C35.3581 124.241 36.0693 125.882 37.1822 126.627C37.4575 126.811 37.7366 126.989 38.0158 127.168C38.5741 127.525 39.1324 127.882 39.6602 128.279C40.4173 128.864 40.3714 129.254 39.729 129.943C38.8227 130.918 38.0311 131.962 37.4116 133.167C36.9068 134.13 37.1592 134.922 37.6525 135.736C37.9699 136.264 38.2937 136.788 38.6174 137.312C39.265 138.36 39.9125 139.407 40.5091 140.486C40.8892 141.17 41.4203 141.683 42.0325 141.938C41.4155 141.684 40.8801 141.175 40.4977 140.486C39.9011 139.408 39.2535 138.36 38.606 137.312C38.2822 136.788 37.9585 136.264 37.6411 135.737C37.1592 134.934 36.9068 134.142 37.4002 133.167C38.0082 131.962 38.8112 130.918 39.7176 129.943C40.36 129.243 40.4059 128.853 39.6487 128.28C39.121 127.882 38.5627 127.525 38.0043 127.168C37.7252 126.99 37.446 126.811 37.1707 126.628C36.0579 125.871 35.3466 124.241 35.8285 122.98C36.0903 122.275 36.2578 121.542 36.4254 120.81C36.5441 120.291 36.6628 119.772 36.8151 119.263C36.8892 119.017 36.9341 118.761 36.9791 118.504C37.0666 118.005 37.1546 117.503 37.4575 117.071L37.4346 117.048C36.4288 116.89 35.4471 117.064 34.4676 117.237C34.0953 117.302 33.7233 117.368 33.3505 117.415C32.8342 117.484 32.3065 117.806 32.0082 118.391C31.6394 119.128 31.461 119.917 31.2834 120.703C31.1958 121.09 31.1085 121.476 30.9986 121.855C30.8523 122.355 30.7237 122.857 30.5953 123.358C30.4318 123.996 30.2686 124.633 30.0694 125.262C29.8399 125.997 30.1841 127.465 31.0331 127.958C31.8202 128.423 32.5533 128.974 33.288 129.526C33.6241 129.778 33.9605 130.031 34.3026 130.276C34.7042 130.574 34.6927 130.849 34.383 131.228C33.9483 131.751 33.5274 132.281 33.1071 132.81C32.762 133.244 32.4173 133.678 32.0656 134.108C31.6181 134.67 31.4346 136.414 31.8132 137.067C32.9145 138.96 34.0158 140.842 35.1516 142.7C35.4843 143.251 37.1822 144.18 37.8476 143.813C38.097 143.672 38.3643 143.646 38.6235 143.62C38.8293 143.6 39.03 143.58 39.2128 143.503C39.5713 143.354 39.9458 143.314 40.317 143.274C40.7179 143.231 41.115 143.189 41.4843 143.01C42.0235 142.758 42.1497 143.01 42.2414 143.503C42.4252 144.431 42.4912 145.366 42.5573 146.303C42.5738 146.536 42.5903 146.769 42.6086 147.002C42.6774 147.874 42.8954 148.815 43.7558 149.274C44.6291 149.743 45.5982 149.968 46.5627 150.193C46.8018 150.249 47.0407 150.304 47.2778 150.364C47.5142 150.425 47.7511 150.485 47.9884 150.546C48.914 150.784 49.8454 151.024 50.7768 151.27C51.2013 151.385 51.6028 151.396 52.0158 151.247C53.1057 150.857 53.6793 149.997 54.1267 149.01C53.2942 148.647 52.4143 148.451 51.5338 148.254C51.1889 148.176 50.8438 148.099 50.5015 148.012C49.5607 147.771 48.2873 146.761 48.3676 145.775C48.4203 145.119 48.2998 144.491 48.1798 143.865C48.0645 143.263 47.9497 142.665 47.989 142.046C48.0192 141.644 47.7146 141.225 47.4536 141.227C47.7151 141.212 48.0209 141.638 48.0005 142.046C47.9612 142.664 48.076 143.263 48.1912 143.864C48.3112 144.49 48.4317 145.119 48.3791 145.774C48.3102 146.761 49.5722 147.771 50.5129 148.012C50.8552 148.099 51.2003 148.176 51.5453 148.253C52.4257 148.45 53.3056 148.647 54.1381 149.01C54.2926 149.041 54.3871 148.945 54.4809 148.85C54.5613 148.769 54.6412 148.688 54.7576 148.688C54.8365 148.16 55.1433 147.762 55.4503 147.363C55.5897 147.182 55.7293 147.001 55.8475 146.807C55.9952 146.551 56.1851 146.641 56.4173 146.752C56.4557 146.77 56.4952 146.789 56.5358 146.807C57.2112 147.1 57.7344 147.594 58.2531 148.083C58.5274 148.342 58.8005 148.6 59.0942 148.826C60.1152 149.606 61.0444 149.962 62.2605 149.698C62.3832 149.665 62.4928 149.592 62.6028 149.518ZM53.0712 138.776C47.4154 138.501 42.6888 134.21 42.5512 127.35L42.5397 127.362C42.7806 125.411 43.4116 123.117 45.0865 121.132C47.2548 118.562 49.9967 117.151 53.2662 117.128C56.1802 117.117 58.7729 118.184 60.9527 120.295C63.1553 122.417 64.1649 125.102 64.1993 127.924C64.2337 130.31 63.5798 132.754 61.8245 134.715C59.4613 137.342 56.6047 138.937 53.0712 138.776Z" fill="#00BFFE"/>
<path fill-rule="evenodd" clip-rule="evenodd" d="M62.4211 40.5969C62.4699 40.5883 62.5186 40.5797 62.5702 40.5739V40.5854C62.662 38.9907 64.1993 36.5701 66.2758 36.1227C66.9985 35.9621 67.6983 35.8588 68.4211 35.8588C69.5541 35.8588 70.6861 35.865 71.8173 35.8712C74.4546 35.8857 77.0879 35.9001 79.7213 35.8359C83.0941 35.7441 83.53 36.3751 83.4268 39.4955C83.3924 40.3674 83.5415 41.2737 83.966 42.0768C84.7002 43.4649 85.9392 44.268 87.4536 44.268C95.8054 44.3253 104.157 44.3139 112.509 44.2909C114.253 44.2794 116.582 42.5013 116.352 40.4592C116.237 39.4382 116.318 38.3942 116.593 37.3732C116.777 36.6733 117.557 35.8703 118.291 35.8703C119.537 35.8673 120.783 35.859 122.03 35.8506H122.03C125.594 35.8267 129.162 35.8027 132.723 35.9047C134.742 35.9621 136.153 37.2699 137.002 39.1284C137.021 39.1723 137.041 39.2159 137.06 39.2595C137.249 39.6829 137.433 40.0954 137.381 40.5739C137.484 40.4757 137.579 40.6066 137.669 40.7309C137.789 40.897 137.9 41.0512 138.012 40.6313C138.276 39.6561 138.631 38.7154 139.079 37.8091C139.549 36.8684 140.065 36.0538 141.247 35.7211C141.828 35.5551 142.397 35.5601 142.96 35.5651C143.331 35.5684 143.7 35.5717 144.069 35.5261C144.141 35.5182 144.217 35.5212 144.293 35.5243C144.547 35.5345 144.799 35.5446 144.861 35.1475C144.803 34.1839 144.413 33.3235 143.931 32.5204C141.717 28.8378 138.413 27.0367 134.146 27.0367H74.1802C72.6257 27.0367 71.0683 27.0309 69.511 27.0252C67.9536 27.0195 66.3962 27.0137 64.8418 27.0137C64.7549 27.0161 64.6651 27.0117 64.5746 27.0073C64.2265 26.9903 63.8664 26.9727 63.6113 27.3341C62.534 27.1861 61.5255 27.6217 60.6774 28.0916C57.1324 30.0534 54.8954 32.9673 54.7921 37.1777C54.7524 38.7661 54.7622 40.3546 54.7719 41.943C54.7763 42.649 54.7806 43.355 54.7806 44.061C54.7806 45.1241 54.2606 45.6671 53.2204 45.6901C52.0961 45.713 51.0636 46.6767 51.0636 47.7895C51.0622 48.1078 51.0606 48.4262 51.059 48.7445C51.0477 50.973 51.0364 53.2015 51.0866 55.43C51.098 56.2101 51.4193 56.8985 52.2797 57.3115C52.8817 57.6017 53.4534 57.5898 54.0327 57.5777L54.1497 57.5753C54.6889 57.5638 54.8151 57.7359 54.8036 58.2522C54.7577 59.5256 54.7233 60.799 54.8036 62.0724C54.8609 62.8984 54.5971 63.0705 53.794 63.1049C52.1879 63.1738 51.0063 63.8277 51.0522 65.8468C51.098 68.0036 51.1325 70.1604 51.0407 72.3057C50.9718 73.9692 52.0158 75.1049 53.7022 74.9672C53.7987 74.9598 53.8865 74.9522 53.9666 74.9453C54.3689 74.9107 54.5743 74.893 54.6783 74.9872C54.7868 75.0854 54.7852 75.3051 54.7819 75.7539C54.7813 75.8388 54.7806 75.932 54.7806 76.0342V104.497C55.9454 104.583 57.0797 104.892 58.1931 105.196L58.1933 105.196L58.4059 105.254C58.9587 105.41 59.5159 105.544 60.0721 105.678L60.0725 105.678C60.4164 105.761 60.76 105.843 61.1018 105.931C61.1817 105.952 61.2561 105.971 61.3254 105.99C61.7878 106.112 62.0245 106.175 62.1455 106.084C62.2723 105.988 62.2722 105.724 62.272 105.183L62.272 105.116V40.6198C62.3236 40.6141 62.3724 40.6055 62.4211 40.5969H62.4211H62.4211ZM63.6028 27.3459L63.6037 27.3451L63.6031 27.3459H63.6028ZM69.6461 27.4836C69.636 27.438 69.6258 27.3924 69.6257 27.3467C69.6295 27.3696 69.6346 27.3924 69.6397 27.4153C69.6498 27.4609 69.66 27.5065 69.6601 27.5521C69.6563 27.5293 69.6512 27.5064 69.6461 27.4836ZM69.436 27.6229C69.5102 27.5986 69.5849 27.5751 69.6601 27.5524V27.5529C69.5848 27.5754 69.5102 27.5987 69.436 27.6229ZM65.1745 30.3746L65.2225 30.3264L65.1744 30.3751L65.1548 30.3948L65.1745 30.3746ZM62.9374 34.1031L62.9524 34.0633L62.9374 34.1036L62.9258 34.1349L62.9374 34.1031ZM62.2691 39.0177C62.272 39.549 62.272 40.0803 62.272 40.6145C62.2677 40.2117 62.2683 39.8105 62.2688 39.4097V39.4095C62.269 39.2789 62.2691 39.1483 62.2691 39.0177ZM105.155 36.1966C104.693 36.1941 104.23 36.1915 103.767 36.1915H99.8665C98.9258 36.1915 98.3178 35.6753 98.2834 34.8607C98.2375 33.8282 98.7537 33.1628 99.7747 33.1514C102.528 33.1055 105.27 33.117 108.012 33.1514C108.746 33.1628 109.193 33.9429 109.171 34.9869C109.159 35.8015 108.815 36.1686 107.932 36.1915C107.006 36.2068 106.081 36.2017 105.155 36.1966ZM92.8587 36.1966H92.8586H92.8586C92.7732 36.194 92.6883 36.1915 92.6046 36.1915C91.3197 36.203 91.0788 36.0424 90.7346 34.9755C90.5166 34.2871 91.182 33.2202 91.9163 33.1514C92.421 33.1055 92.9373 33.1055 93.4421 33.1514C94.0845 33.2202 94.5663 33.9774 94.5434 34.7919C94.5319 35.4688 93.9813 36.1342 93.3732 36.1915C93.2046 36.2068 93.0308 36.2017 92.8587 36.1966ZM145.193 134.991V85.4764H141.373C140.111 85.4649 139.09 84.6389 138.689 83.4229C138.643 83.2945 138.605 83.1599 138.568 83.0256C138.491 82.7519 138.414 82.4797 138.276 82.2642C138.164 82.0906 138.125 81.9035 138.086 81.712C138.045 81.511 138.003 81.3052 137.874 81.1055C137.615 81.3821 137.641 81.6935 137.665 81.9856C137.672 82.069 137.679 82.1508 137.679 82.2297V125.262C137.679 127.61 137.68 129.958 137.682 132.306C137.684 137.002 137.687 141.698 137.679 146.394C137.679 146.467 137.69 146.545 137.702 146.626C137.741 146.9 137.783 147.195 137.392 147.346C137.301 149.342 135.889 151.063 133.962 151.786C133.262 152.038 132.585 152.084 131.897 152.084H68.0999C65.9775 152.084 64.2567 151.396 63.2816 149.354C63.0011 149.251 62.8013 149.385 62.6029 149.518C62.4929 149.592 62.3833 149.665 62.2605 149.698V161.056C62.2605 162.948 62.4785 164.761 63.1898 166.574C63.8322 168.237 64.8303 169.534 66.1152 170.635C67.2968 171.633 68.6506 172.379 70.1649 172.803C70.3255 172.849 70.3944 172.952 70.4173 173.101C70.4704 173.106 70.5221 173.111 70.5729 173.117C70.6646 173.126 70.7532 173.136 70.8418 173.136C75.7597 173.133 80.6776 173.131 85.5954 173.129H85.6302C100.353 173.122 115.075 173.116 129.798 173.09C130.345 173.09 130.893 173.103 131.441 173.116C133.142 173.156 134.842 173.196 136.543 172.849C137.576 172.643 138.54 172.344 139.48 171.908C141.408 171.014 142.784 169.499 143.851 167.721C144.861 166.023 145.205 164.153 145.205 162.168C145.18 155.704 145.185 149.233 145.19 142.761V142.76V142.759C145.192 140.17 145.193 137.58 145.193 134.991ZM99.4995 169.752C96.6543 169.637 93.1897 167.136 93.5224 163.396C93.1668 159.736 96.6658 157.189 99.8436 157.121C102.998 157.052 106.165 160.321 106.096 163.545C106.039 166.448 103.159 169.901 99.4995 169.752ZM55.4388 147.363C55.1318 147.762 54.8251 148.16 54.7462 148.689H54.7347C54.7462 153.289 54.7577 157.901 54.7577 162.501C54.7577 164.704 55.3198 166.7 56.6047 168.524C58.6009 171.358 61.3657 172.803 64.7271 173.079C66.0144 173.189 67.3125 173.159 68.6103 173.129C69.2092 173.115 69.8081 173.102 70.4058 173.102C70.3829 172.953 70.314 172.849 70.1534 172.803C68.6391 172.379 67.2739 171.633 66.1037 170.635C64.8188 169.545 63.8322 168.237 63.1783 166.574C62.4555 164.75 62.249 162.949 62.249 161.056C62.2643 158.532 62.2592 156.008 62.2541 153.484C62.2516 152.222 62.249 150.96 62.249 149.698C61.033 149.962 60.1037 149.607 59.0827 148.826C58.778 148.595 58.4977 148.33 58.217 148.065C57.7049 147.581 57.1912 147.096 56.5244 146.807C56.4783 146.789 56.4337 146.769 56.3905 146.75C56.1653 146.649 55.9805 146.567 55.8361 146.807C55.7178 147.001 55.5783 147.182 55.4388 147.363Z" fill="#00BFFE"/>
<path d="M93.5224 163.384C93.1783 159.724 96.6658 157.189 99.8437 157.108C102.999 157.04 106.165 160.309 106.096 163.533C106.039 166.435 103.159 169.9 99.4995 169.739C96.6544 169.613 93.1897 167.124 93.5224 163.384Z" fill="#0098CA"/>
<path fill-rule="evenodd" clip-rule="evenodd" d="M141.373 85.4655H145.193L145.216 85.454C145.538 85.454 145.859 85.4515 146.18 85.4489C146.823 85.4438 147.465 85.4387 148.107 85.454C149.358 85.477 150.127 84.9033 150.677 83.7676C150.967 83.1618 151.181 82.531 151.395 81.901C151.639 81.1826 151.883 80.4651 152.237 79.7867C152.559 79.1787 152.903 79.2475 153.304 79.4425C153.713 79.6372 154.112 79.8525 154.509 80.0674C155.049 80.3592 155.588 80.6502 156.149 80.8881C157.262 81.3584 158.444 81.7485 159.568 80.9913C160.026 80.6835 160.415 80.288 160.805 79.8927C160.924 79.7724 161.042 79.6521 161.163 79.5343C161.538 79.1705 161.905 78.796 162.271 78.4218C162.978 77.6985 163.684 76.9762 164.455 76.3336C165.385 75.5535 166.039 74.0735 165.499 73.0181C165.126 72.2904 164.797 71.5478 164.468 70.8051C164.222 70.2481 163.975 69.6911 163.71 69.1405C163.434 68.5669 163.71 68.3145 164.077 68.1539C164.782 67.8525 165.504 67.5919 166.228 67.3308C166.716 67.1546 167.205 66.9782 167.691 66.7887C169.113 66.238 169.916 65.3546 169.962 63.8977C170.011 62.3659 170.002 60.8342 169.993 59.2982C169.989 58.683 169.985 58.0671 169.985 57.4502C169.985 57.1749 169.985 56.8996 169.859 56.6242C169.423 55.7179 168.826 55.1214 167.805 54.7543C167.352 54.5924 166.908 54.4007 166.463 54.2085C165.804 53.9239 165.142 53.6382 164.444 53.4464C163.836 53.2744 163.698 52.7351 163.985 52.1615C164.168 51.7904 164.361 51.4229 164.554 51.0547C164.843 50.501 165.134 49.9457 165.396 49.3738C165.958 48.1233 166.348 46.7925 165.27 45.6453C163.618 43.8901 161.886 42.2037 160.153 40.5173L160.153 40.5172C159.534 39.9207 158.685 39.6912 157.893 40.001C157.562 40.1322 157.23 40.2587 156.897 40.3852C155.776 40.8113 154.655 41.2376 153.603 41.848C153.281 42.043 152.88 42.1348 152.662 41.5727C152.506 41.1585 152.358 40.7405 152.21 40.3223C151.845 39.2924 151.48 38.2611 150.998 37.282C150.551 36.3642 149.909 35.7562 148.807 35.8136C148.333 35.8365 147.865 35.8289 147.394 35.8212C147.159 35.8174 146.922 35.8136 146.685 35.8136C146.598 35.8136 146.51 35.8158 146.422 35.818C145.816 35.8332 145.213 35.8483 144.872 35.1367C144.81 35.527 144.556 35.5195 144.301 35.5119C144.226 35.5097 144.151 35.5075 144.081 35.5153C143.707 35.5609 143.337 35.5576 142.967 35.5543C142.404 35.5493 141.84 35.5443 141.258 35.7103C140.077 36.043 139.561 36.8576 139.09 37.7983C138.643 38.7046 138.287 39.6453 138.023 40.6205C137.912 41.0404 137.8 40.8862 137.68 40.7201C137.59 40.5958 137.495 40.4649 137.392 40.5631C137.388 40.6353 137.383 40.7062 137.378 40.7761C137.368 40.9061 137.358 41.0329 137.358 41.1597C137.346 41.6071 137.128 41.6988 136.75 41.5038C136.153 41.2056 135.568 40.9073 134.983 40.609C134.983 40.6088 134.983 40.6086 134.983 40.6084C134.548 40.6269 134.203 40.4143 133.863 40.2049C133.782 40.1546 133.7 40.1044 133.618 40.0577C132.149 39.1973 130.738 39.507 129.683 40.6084C128.638 41.7101 127.559 42.7774 126.481 43.8428C126.033 44.2862 125.585 44.7293 125.14 45.1743C124.509 45.8053 124.119 47.5376 124.543 48.2948C124.822 48.7939 125.026 49.3231 125.23 49.8519C125.461 50.4535 125.693 51.0546 126.035 51.6103C126.287 52.0233 126.425 52.6887 125.576 52.9296C125.124 53.0586 124.682 53.2266 124.237 53.3953C123.813 53.5565 123.386 53.7184 122.949 53.8474C121.159 54.3751 120.058 55.2929 120.035 57.4382C120.019 58.8531 120.025 60.268 120.03 61.6829C120.032 62.3904 120.035 63.0978 120.035 63.8053C120.035 64.1265 120.092 64.4362 120.218 64.7689C120.676 65.9738 121.741 66.3433 122.77 66.7003C122.799 66.7105 122.828 66.7206 122.857 66.7307C123.821 67.0634 124.784 67.4076 125.691 67.8664C126.023 68.0385 126.322 68.3368 125.966 68.8301C125.656 69.2775 125.381 69.7823 125.209 70.2986C125.081 70.6828 124.893 71.0374 124.706 71.3924C124.457 71.8641 124.207 72.3365 124.096 72.8798C123.775 74.4859 124.704 75.5414 125.633 76.5624C126.37 77.3774 127.155 78.1485 127.94 78.9192C128.426 79.3961 128.911 79.8729 129.385 80.3597C130.222 81.2316 131.714 81.7135 132.838 80.9563C132.979 80.8668 133.131 80.8161 133.279 80.7664C133.359 80.7396 133.438 80.7131 133.515 80.6809C133.676 80.613 133.84 80.5481 134.003 80.4832C134.723 80.1978 135.445 79.9111 136.015 79.3504C136.015 79.3506 136.016 79.3507 136.016 79.3508C136.084 79.3459 136.155 79.3473 136.227 79.3487C136.323 79.3505 136.422 79.3524 136.52 79.3393C137.186 79.2475 137.369 79.5114 137.369 80.1883C137.358 102.203 137.358 124.219 137.358 146.234C137.358 146.418 137.367 146.601 137.375 146.785C137.384 146.968 137.392 147.152 137.392 147.335C137.783 147.184 137.741 146.89 137.702 146.615C137.69 146.535 137.679 146.456 137.679 146.383V125.251V82.2188C137.679 82.1397 137.672 82.0583 137.665 81.9755C137.641 81.6862 137.616 81.38 137.874 81.0946C138.003 81.2943 138.045 81.5001 138.086 81.701C138.126 81.8926 138.164 82.0797 138.276 82.2533C138.425 82.4854 138.508 82.7836 138.591 83.0783C138.622 83.1913 138.654 83.3038 138.689 83.4119C139.09 84.628 140.111 85.4655 141.373 85.4655ZM135.331 78.5828C135.206 78.4424 135.081 78.302 134.957 78.1616C134.16 77.2667 133.364 76.3708 132.556 75.48C133.337 76.3421 134.112 77.2123 134.888 78.0852C135.036 78.251 135.183 78.4168 135.331 78.5828ZM130.866 72.6918C130.865 72.3131 130.959 71.9157 131.151 71.4923C131.209 71.3668 131.265 71.2409 131.32 71.1146C131.264 71.2407 131.208 71.3664 131.151 71.4917C130.957 71.9141 130.864 72.3117 130.866 72.6918ZM132.851 67.6653C132.858 67.6522 132.865 67.6392 132.872 67.6261C132.893 67.5874 132.913 67.5446 132.931 67.4994C133.025 67.2553 133.045 66.9415 132.754 66.8192C133.044 66.9504 133.025 67.2576 132.931 67.4994C132.913 67.5442 132.893 67.5868 132.872 67.6255C132.865 67.6388 132.858 67.652 132.851 67.6653ZM128.96 65.5248C127.557 64.9691 126.838 63.8864 126.838 62.2112C126.838 61.6002 126.834 60.9902 126.829 60.3806C126.829 60.3797 126.829 60.3788 126.829 60.378C126.833 60.9886 126.838 61.5996 126.838 62.2106C126.838 63.8957 127.557 64.9713 128.96 65.5248ZM126.823 59.3532C126.818 58.3259 126.82 57.2988 126.849 56.2686C126.884 55.0296 127.434 53.9971 128.639 53.4923C130.027 52.9072 131.438 52.3566 132.861 51.8403C132.868 51.8375 132.876 51.8348 132.883 51.832C132.876 51.8346 132.868 51.8371 132.861 51.8397C131.438 52.356 130.027 52.9066 128.639 53.4917C127.434 53.9965 126.884 55.029 126.849 56.268C126.819 57.2938 126.818 58.3228 126.823 59.3532ZM133.271 51.486C133.272 51.4367 133.26 51.3812 133.234 51.3174C133.26 51.3808 133.272 51.4364 133.271 51.486ZM132.563 49.9833C132.369 49.5623 132.187 49.1353 132.005 48.7076C131.846 48.3332 131.686 47.9582 131.518 47.5864C131.66 47.9058 131.797 48.2268 131.933 48.5476C132.138 49.0283 132.343 49.5088 132.563 49.9833ZM131.26 46.3075C131.251 45.3991 131.549 44.433 132.138 43.9359C132.712 43.4541 133.234 42.9111 133.757 42.368C134.018 42.0965 134.28 41.825 134.547 41.5612C134.585 41.5231 134.623 41.4851 134.66 41.4466C134.623 41.4849 134.585 41.5227 134.547 41.5606C134.28 41.8244 134.018 42.0959 133.757 42.3674C133.234 42.9105 132.712 43.4535 132.138 43.9353C131.548 44.4253 131.25 45.3956 131.26 46.3075ZM152.455 69.76C148.36 72.2265 148.039 72.2953 144.723 72.2036H144.712C141.637 72.6166 138.987 71.1137 136.75 69.0028C134.077 66.4789 133.033 63.2323 133.251 59.5267C133.561 54.433 138.39 48.3183 145.721 48.7772C148.555 48.9493 150.998 50.0277 153.086 52.0009C156.012 54.7772 157.056 58.1615 156.735 62.085C156.607 63.6416 155.929 64.9892 155.255 66.3277C155.139 66.5577 155.023 66.7876 154.91 67.0181C154.371 68.1424 153.499 69.129 152.455 69.76Z" fill="#00BFFE"/>
<path d="M144.735 72.2027C141.66 72.6042 139.01 71.1014 136.773 69.0019C134.1 66.4895 133.056 63.2429 133.274 59.5258C133.584 54.4207 138.413 48.3175 145.744 48.7764C148.566 48.9484 151.021 50.0268 153.109 52.0001C156.023 54.7649 157.067 58.1607 156.757 62.0842C156.608 63.9083 155.702 65.4455 154.933 67.0172C154.383 68.1415 153.522 69.1281 152.478 69.7591C148.383 72.2256 148.062 72.2945 144.746 72.2027H144.735ZM144.987 68.1759C149.094 68.5889 152.708 64.5622 152.742 60.6501C152.788 56.4054 148.979 52.9178 145.274 52.8031C140.926 52.6655 137.346 56.566 137.301 60.4092C137.243 64.7228 140.891 68.4857 144.987 68.1759Z" fill="#0098CA"/>
<path d="M42.5512 127.351C42.7807 125.401 43.4231 123.106 45.098 121.121C47.2548 118.563 50.0082 117.14 53.2778 117.118C56.1802 117.095 58.773 118.173 60.9642 120.284C63.1668 122.406 64.1764 125.091 64.2108 127.913C64.2338 130.299 63.5913 132.743 61.8361 134.704C59.4843 137.332 56.6162 138.938 53.0827 138.766C47.4269 138.502 42.7003 134.2 42.5627 127.339L42.5512 127.351ZM46.3026 127.924C46.2223 131.894 49.5263 135.106 53.3122 135.026C57.8437 134.934 60.4823 131.859 60.4594 127.901C60.4364 123.852 57.4766 120.915 53.3695 120.846C49.5722 120.777 46.2567 123.909 46.3026 127.913V127.924Z" fill="#0098CA"/>
<path d="M103.779 36.1915C102.482 36.1915 101.174 36.1915 99.8781 36.1915C98.9374 36.1915 98.3179 35.6638 98.2949 34.8607C98.249 33.8282 98.7653 33.1628 99.7863 33.1514C102.528 33.1055 105.27 33.1169 108.023 33.1514C108.758 33.1514 109.205 33.9315 109.182 34.9869C109.159 35.8014 108.826 36.18 107.943 36.1915C106.555 36.2259 105.167 36.1915 103.779 36.1915Z" fill="#0098CA"/>
<path d="M92.6161 36.1917C91.3312 36.1917 91.0903 36.0426 90.7461 34.9757C90.5282 34.2874 91.1936 33.2204 91.9278 33.1516C92.4326 33.1057 92.9488 33.1057 93.4536 33.1516C94.096 33.2204 94.5779 33.9661 94.5549 34.7921C94.5435 35.469 93.9928 36.1344 93.3848 36.1917C93.1324 36.2147 92.88 36.1917 92.6161 36.1917Z" fill="#0098CA"/>
<path fill-rule="evenodd" clip-rule="evenodd" d="M104.898 69.8856C103.834 69.6527 102.776 69.4211 101.668 69.5063L101.663 69.5088C101.163 69.5205 100.664 69.52 100.165 69.5195C98.8335 69.5181 97.5033 69.5167 96.161 69.7487C93.706 70.1732 91.3427 70.7468 89.117 71.8711C86.6276 73.133 84.2528 74.5441 82.2796 76.5632C81.4536 77.4007 80.662 78.2497 79.9278 79.1674C78.9068 80.4294 78.0463 81.7716 77.2547 83.1712C76.8512 83.8886 76.5645 84.6645 76.2773 85.4416C76.1236 85.8575 75.9697 86.2738 75.7978 86.6818C75.1553 88.2076 74.7423 89.8252 74.6276 91.4083C74.4211 94.0928 74.3178 96.7888 74.7882 99.4963C75.1668 101.687 75.8437 103.752 76.7041 105.749C77.6563 107.963 79.01 109.982 80.6391 111.795C82.7155 114.1 85.0215 116.154 87.8092 117.577C89.358 118.368 90.9182 119.091 92.639 119.538C92.9319 119.613 93.2239 119.692 93.5159 119.77C94.7452 120.102 95.9738 120.433 97.2624 120.479H101.564V120.489H97.2394C97.3415 120.842 97.6011 120.819 97.8484 120.797C97.9069 120.792 97.9647 120.787 98.0195 120.787C100.303 120.81 102.551 120.776 104.823 120.202C105.203 120.105 105.584 120.014 105.965 119.923C107.296 119.604 108.621 119.287 109.87 118.734C112.05 117.77 114.172 116.669 115.974 115.097C117.213 114.019 118.394 112.894 119.496 111.667C120.172 110.921 120.849 110.164 121.343 109.304C122.283 107.652 123.213 106.011 123.947 104.233C124.658 102.501 125.243 100.711 125.358 98.9327C125.392 98.4385 125.465 97.9443 125.538 97.4477C125.712 96.2613 125.889 95.0615 125.541 93.8161C125.345 93.149 125.331 92.4433 125.316 91.728C125.305 91.1517 125.293 90.5692 125.186 89.9958C124.91 88.5503 124.452 87.1851 123.935 85.8314C123.419 84.5006 122.845 83.1927 122.077 81.9652C122.022 81.8775 121.967 81.7897 121.912 81.7018C121.199 80.56 120.482 79.4126 119.587 78.4432C119.5 78.349 119.412 78.2546 119.324 78.1601C118.161 76.9092 116.99 75.6486 115.561 74.6459C114.195 73.6937 112.853 72.7874 111.327 72.0876C111.152 72.0073 110.976 71.9265 110.801 71.8458C109.251 71.1312 107.715 70.4236 106.004 70.1144C105.633 70.0466 105.265 69.966 104.898 69.8856ZM97.3182 71.5788C98.0978 71.2516 98.8996 70.9763 99.7404 70.7912C100.063 70.7221 100.38 70.6297 100.696 70.5375C101.323 70.3544 101.949 70.1717 102.62 70.1717C102.685 70.1717 102.752 70.1692 102.804 70.1452C102.755 70.1599 102.697 70.1617 102.643 70.1617C101.966 70.1617 101.331 70.3472 100.699 70.5316C100.388 70.6225 100.077 70.7131 99.7633 70.7812C98.9121 70.9674 98.1027 71.2474 97.3182 71.5788ZM104.742 82.528C104.75 82.6567 104.758 82.7966 104.777 82.9518L104.765 82.9748C104.717 83.1581 104.668 83.3593 104.617 83.5721C104.498 84.0651 104.364 84.6211 104.18 85.166C104.069 85.4822 104.025 85.8064 103.981 86.1335C103.934 86.4829 103.886 86.8355 103.756 87.1851C103.326 88.3204 103.051 89.513 102.777 90.7022C102.663 91.1953 102.549 91.6879 102.425 92.1755C102.183 93.1438 101.95 94.1388 101.717 95.1291C101.686 95.2652 101.654 95.4011 101.622 95.5369C101.474 96.1592 101.305 96.7816 101.137 97.402C101.004 97.8908 100.871 98.3784 100.75 98.8638C100.63 99.3291 100.52 99.8004 100.41 100.272C100.257 100.928 100.104 101.584 99.9239 102.225C99.751 102.817 99.6351 103.426 99.5192 104.035C99.3274 105.042 99.1354 106.05 98.6849 106.986C98.6258 107.114 98.6174 107.259 98.609 107.407C98.6076 107.431 98.6062 107.455 98.6046 107.479C98.5243 108.328 97.5721 109.258 96.8494 109.2C96.0004 109.131 95.1974 108.214 95.1974 107.307C95.1886 106.614 95.3944 105.975 95.5995 105.338C95.6627 105.142 95.7257 104.946 95.7824 104.749C95.8828 104.398 95.9608 104.046 96.0388 103.695C96.0856 103.484 96.1323 103.273 96.184 103.063C96.3705 102.291 96.5726 101.522 96.7746 100.753C97.0322 99.7725 97.2897 98.7922 97.5148 97.8084C97.6275 97.306 97.7518 96.8059 97.8762 96.305C98.0302 95.685 98.1845 95.0638 98.3178 94.4355C98.5243 93.4604 98.7538 92.4623 99.1323 91.5101C99.2954 91.1121 99.3621 90.6808 99.4293 90.2455C99.4803 89.9155 99.5316 89.5832 99.6256 89.2616C99.8547 88.5005 100.041 87.73 100.227 86.9591C100.33 86.5331 100.433 86.1069 100.543 85.6822C100.642 85.3027 100.733 84.9187 100.823 84.534C100.984 83.8489 101.145 83.1615 101.358 82.4929C101.384 82.4151 101.408 82.3334 101.433 82.2502C101.586 81.7442 101.755 81.1804 102.356 81.0818C103.102 80.9557 103.916 80.818 104.501 81.6325C104.704 81.9022 104.72 82.1719 104.742 82.528ZM108.654 103.453C108.368 103.785 107.989 103.854 107.633 103.808V103.785C106.612 103.831 106.062 103.281 105.786 102.489C105.557 101.824 106.142 100.527 106.922 100.149C107.404 99.9193 107.782 99.5981 108.104 99.2309C108.529 98.7492 109.028 98.3798 109.529 98.0088C109.743 97.8497 109.959 97.6903 110.169 97.5216C110.593 97.1889 110.662 96.8218 110.192 96.5006C109.565 96.0736 109.011 95.5635 108.456 95.0532C107.864 94.5078 107.271 93.9623 106.589 93.5178C105.981 93.1277 105.683 92.4508 105.763 91.6937C105.844 90.9595 106.325 90.4547 106.968 90.2596C107.576 90.0876 108.207 90.1105 108.769 90.6382C109.504 91.3273 110.288 91.9627 111.072 92.5987C112.064 93.4028 113.058 94.2079 113.954 95.1239C114.062 95.2366 114.206 95.3104 114.352 95.3852C114.533 95.4778 114.717 95.572 114.838 95.7434C115.584 96.8218 115.377 97.6478 114.333 98.5082C113.744 98.9977 113.176 99.5076 112.607 100.017C112.323 100.272 112.039 100.527 111.752 100.78C111.384 101.106 110.995 101.407 110.605 101.707C109.912 102.242 109.22 102.777 108.654 103.453ZM94.1075 98.6229C93.8207 99.3112 93.465 99.9881 92.5358 99.7128C91.9519 99.8437 91.5889 99.5682 91.1909 99.2662C91.1353 99.224 91.0791 99.1813 91.0215 99.1392C90.1655 98.5245 89.3699 97.835 88.5728 97.1442C87.7781 96.4554 86.9819 95.7654 86.1228 95.1468C86.0959 95.1279 86.0687 95.1088 86.0414 95.0897C85.4398 94.6681 84.7541 94.1877 84.6773 93.2769C84.5855 92.2578 85.221 91.7751 85.8549 91.2936C86.0131 91.1734 86.1712 91.0534 86.3178 90.925C86.3951 90.8581 86.4909 90.8003 86.5886 90.7415C86.7084 90.6693 86.8311 90.5954 86.9259 90.5006C88.1078 89.2913 89.4267 88.2478 90.7455 87.2044C91.0907 86.9313 91.4359 86.6581 91.7786 86.382C92.2834 85.969 93.0635 86.0837 93.6142 86.7606C94.2107 87.5063 94.6352 88.4585 93.6371 89.2501C93.2336 89.5729 92.8457 89.917 92.4574 90.2615C91.7418 90.8963 91.025 91.5321 90.2069 92.0379C90.1352 92.0881 90.0724 92.1517 90.0102 92.2148C89.973 92.2526 89.9359 92.2903 89.8972 92.3247C89.3618 92.8294 89.4115 93.296 90.0463 93.7243C90.0611 93.7317 90.0712 93.7439 90.0826 93.7578C90.0889 93.7654 90.0955 93.7735 90.1037 93.7816C90.6912 94.4585 91.3853 95.0145 92.0792 95.5704C92.6319 96.0132 93.1845 96.4559 93.683 96.9594C94.1878 97.4642 94.3714 97.9919 94.1075 98.6229Z" fill="#00BFFE"/>
<path d="M104.777 82.9516C104.616 83.5596 104.455 84.3627 104.192 85.1428C103.974 85.7967 104.031 86.485 103.767 87.1619C103.159 88.768 102.861 90.4888 102.436 92.1523C102.15 93.2651 101.897 94.4009 101.633 95.5137C101.381 96.6265 101.048 97.7393 100.761 98.8406C100.475 99.9535 100.257 101.101 99.9354 102.202C99.4879 103.785 99.4191 105.46 98.6964 106.963C98.6275 107.112 98.6275 107.296 98.6161 107.456C98.5358 108.305 97.5836 109.235 96.8608 109.177C96.0004 109.108 95.2203 108.191 95.2088 107.284C95.2088 106.378 95.553 105.563 95.7939 104.726C95.9545 104.175 96.0577 103.602 96.1954 103.039C96.6199 101.284 97.1247 99.5405 97.5262 97.7852C97.7786 96.6609 98.0883 95.5481 98.3293 94.4124C98.5358 93.4372 98.7537 92.4391 99.1438 91.4869C99.4306 90.7871 99.4191 89.9841 99.6371 89.2384C99.9813 88.0567 100.245 86.8522 100.555 85.659C100.83 84.6036 101.037 83.5137 101.369 82.4697C101.553 81.9076 101.668 81.1619 102.367 81.0587C103.113 80.9439 103.928 80.8063 104.513 81.6093C104.788 81.9879 104.719 82.3436 104.788 82.9286L104.777 82.9516Z" fill="#0098CA"/>
<path d="M107.633 103.809C106.612 103.855 106.062 103.304 105.786 102.513C105.557 101.836 106.13 100.551 106.922 100.172C107.404 99.9429 107.782 99.6217 108.104 99.2545C108.7 98.5662 109.469 98.1073 110.169 97.5452C110.593 97.2125 110.662 96.8454 110.192 96.5241C108.895 95.6408 107.909 94.4018 106.589 93.5414C105.981 93.1513 105.694 92.4744 105.763 91.7173C105.844 90.9831 106.325 90.4783 106.968 90.2832C107.564 90.1112 108.207 90.1341 108.769 90.6618C110.432 92.2335 112.348 93.5184 113.954 95.1475C114.195 95.3999 114.62 95.4458 114.838 95.767C115.584 96.8339 115.377 97.6599 114.333 98.5318C113.45 99.266 112.612 100.046 111.752 100.803C110.731 101.698 109.538 102.421 108.654 103.476C108.367 103.821 107.989 103.878 107.633 103.832V103.809Z" fill="#0098CA"/>
<path d="M92.5357 99.7137C91.8703 99.8743 91.4918 99.4843 91.0214 99.1401C89.3006 97.9126 87.8321 96.3753 86.1228 95.1478C85.5147 94.7118 84.769 94.23 84.6772 93.2778C84.5625 92.0159 85.5836 91.5684 86.3178 90.926C86.4899 90.7768 86.7537 90.6736 86.9258 90.5015C88.4172 88.9757 90.1266 87.7252 91.7786 86.383C92.2948 85.97 93.0749 86.0847 93.6141 86.7616C94.2222 87.5073 94.6352 88.4594 93.6371 89.251C92.4784 90.1688 91.4688 91.2587 90.2069 92.0388C90.0922 92.1076 90.0004 92.2224 89.8971 92.3256C89.3541 92.8304 89.4038 93.2969 90.0463 93.7252C90.0463 93.7252 90.0921 93.7596 90.1036 93.7826C91.1591 94.9872 92.5587 95.8246 93.683 96.9604C94.1877 97.4652 94.3713 98.0044 94.1074 98.6239C93.8206 99.3122 93.465 99.9891 92.5357 99.7137Z" fill="#0098CA"/>
<path d="M196 99.5C196 152.795 152.795 196 99.5 196C46.2045 196 3 152.795 3 99.5C3 46.2045 46.2045 3 99.5 3C152.795 3 196 46.2045 196 99.5ZM9.8205 99.5C9.8205 149.029 49.9714 189.179 99.5 189.179C149.029 189.179 189.179 149.029 189.179 99.5C189.179 49.9714 149.029 9.8205 99.5 9.8205C49.9714 9.8205 9.8205 49.9714 9.8205 99.5Z" fill="#00BFFE"/>
</svg>
