<svg width="200" height="200" viewBox="0 0 200 200" fill="none" xmlns="http://www.w3.org/2000/svg">
<rect width="200" height="200" rx="100" fill="#333333"/>
<path d="M113.582 148.384V153.794H114.473C117.698 153.794 120.919 153.791 124.143 153.794C125.884 153.794 127.083 154.912 127.085 156.515C127.085 158.098 125.871 159.245 124.136 159.245C108.046 159.25 91.9558 159.25 75.8659 159.245C74.1282 159.245 72.9188 158.098 72.9188 156.513C72.9188 154.907 74.1178 153.796 75.8633 153.794C79.3542 153.791 82.8426 153.794 86.3957 153.794V148.384C86.0486 148.384 85.7094 148.384 85.3675 148.384C72.204 148.384 59.0431 148.389 45.8795 148.378C41.3553 148.376 37.3568 145.734 35.7952 141.567C35.3083 140.267 35.0364 138.804 35.0338 137.414C34.9924 108.616 34.9976 79.8183 35.0053 51.0207C35.0079 45.6263 38.4315 41.3947 43.7042 40.2475C44.5096 40.0714 45.3538 40.0092 46.18 40.0092C82.0682 39.9988 117.954 39.9988 153.842 40.0014C159.493 40.0014 163.807 43.5778 164.861 49.1146C164.991 49.7932 164.996 50.5027 164.996 51.1994C165.001 78.8679 165.001 106.539 164.996 134.208C164.996 134.713 164.996 135.243 164.851 135.717C164.457 137.002 163.191 137.706 161.8 137.502C160.591 137.323 159.63 136.202 159.62 134.891C159.602 132.501 159.615 130.111 159.615 127.718C159.615 127.425 159.615 127.132 159.615 126.772H40.3919C40.3919 127.05 40.3919 127.332 40.3919 127.617C40.3919 130.786 40.3894 133.956 40.3919 137.126C40.3971 140.661 42.7123 142.963 46.2525 142.963C79.9369 142.963 113.621 142.963 147.306 142.966C147.759 142.966 148.23 142.945 148.665 143.049C149.945 143.352 150.763 144.551 150.665 145.885C150.566 147.213 149.569 148.233 148.233 148.358C147.94 148.384 147.642 148.373 147.347 148.373C136.442 148.373 125.537 148.373 114.629 148.373C114.308 148.373 113.989 148.373 113.58 148.373L113.582 148.384ZM159.612 121.233V120.428C159.612 97.3533 159.612 74.2763 159.61 51.202C159.61 47.7602 157.287 45.458 153.837 45.458C117.951 45.458 82.0656 45.458 46.1774 45.458C42.6864 45.458 40.3919 47.7602 40.3919 51.2719C40.3894 74.2945 40.3919 97.3144 40.3919 120.337C40.3919 120.622 40.3919 120.909 40.3919 121.233H159.612ZM91.9351 153.752H108.053V148.438H91.9351V153.752Z" fill="#00BFFE"/>
<path d="M99.9682 137.53C99.0566 137.53 98.145 137.546 97.2334 137.528C95.7314 137.497 94.5816 136.342 94.5583 134.871C94.5375 133.423 95.677 132.198 97.1791 132.162C99.054 132.118 100.934 132.118 102.809 132.162C104.311 132.196 105.453 133.41 105.445 134.858C105.435 136.357 104.265 137.507 102.706 137.533C101.794 137.546 100.882 137.533 99.9708 137.533L99.9682 137.53Z" fill="#00BFFE"/>
<path d="M161.264 144.393C161.259 145.919 160.086 147.089 158.563 147.087C157.02 147.087 155.844 145.867 155.862 144.292C155.88 142.837 157.092 141.672 158.566 141.69C160.104 141.708 161.267 142.873 161.262 144.393H161.264Z" fill="#00BFFE"/>
<path d="M99.9164 115.898C84.6863 115.898 69.4562 115.898 54.2287 115.898C52.2423 115.898 50.9915 114.494 51.3075 112.647C51.5172 111.433 52.5479 110.534 53.835 110.449C53.9956 110.438 54.1561 110.446 54.3193 110.446C84.7795 110.446 115.237 110.446 145.697 110.446C147.756 110.446 149.025 111.824 148.699 113.699C148.487 114.913 147.453 115.817 146.171 115.898C145.905 115.913 145.635 115.903 145.366 115.903C130.216 115.903 115.069 115.903 99.919 115.903L99.9164 115.898Z" fill="#00BFFE"/>
<path d="M99.9217 56.2776C84.7227 56.2776 69.521 56.2776 54.322 56.2776C52.6283 56.2776 51.5018 55.4308 51.292 54.0168C51.0512 52.3853 52.1182 51.0231 53.76 50.8832C54.1071 50.8548 54.4567 50.8651 54.8063 50.8651C84.9376 50.8651 115.069 50.8651 145.203 50.8651C145.633 50.8651 146.065 50.8599 146.487 50.9195C147.863 51.1111 148.8 52.2765 148.753 53.6983C148.707 55.0682 147.617 56.1922 146.249 56.2673C145.902 56.2854 145.55 56.2776 145.203 56.2776C130.11 56.2776 115.017 56.2776 99.9243 56.2776H99.9217Z" fill="#00BFFE"/>
<path d="M133.044 80.0613C133.044 77.6166 133.039 75.1745 133.044 72.7298C133.05 71.0491 134.166 69.8319 135.712 69.806C137.279 69.7801 138.483 71.0232 138.485 72.7194C138.496 77.6606 138.527 82.6018 138.478 87.5404C138.428 92.365 134.583 96.5189 129.937 96.8685C124.786 97.257 120.417 93.9784 119.539 89.0476C119.435 88.4701 119.394 87.8719 119.394 87.284C119.384 82.4775 119.391 77.671 119.386 72.8645C119.386 71.6059 119.816 70.5985 121.013 70.0546C122.844 69.2207 124.817 70.5208 124.822 72.577C124.835 77.4897 124.822 82.405 124.83 87.3177C124.832 89.1279 125.889 90.6325 127.528 91.2281C129.139 91.816 130.926 91.3524 132.06 90.0395C132.715 89.2807 133.044 88.3924 133.044 87.385C133.044 84.9403 133.044 82.4982 133.044 80.0535V80.0613Z" fill="#00BFFE"/>
<path d="M51.2478 80.4332C51.2478 77.8021 51.2297 75.1709 51.2556 72.5398C51.2711 71.0973 52.2578 70.007 53.6226 69.8232C54.9174 69.6497 56.2123 70.5017 56.5619 71.8017C56.6577 72.1565 56.6551 72.545 56.6551 72.9179C56.6603 77.7244 56.6499 82.5283 56.6629 87.3348C56.6681 89.5102 58.1882 91.2039 60.304 91.4447C62.4276 91.6855 64.2922 90.3674 64.7713 88.2593C64.8542 87.8994 64.8619 87.5161 64.8619 87.1432C64.8671 82.3108 64.8567 77.4784 64.8723 72.646C64.8801 70.6415 66.6825 69.3337 68.4953 69.9734C69.5674 70.3515 70.3107 71.333 70.3159 72.5734C70.334 77.6467 70.4169 82.7251 70.2874 87.7958C70.1631 92.5971 66.2474 96.6086 61.6843 96.8805C56.5205 97.1887 52.1956 93.9619 51.398 89.0414C51.1416 87.4669 51.2763 85.8302 51.253 84.2194C51.2348 82.9582 51.2504 81.697 51.2504 80.4332H51.2478Z" fill="#00BFFE"/>
<path d="M83.3322 77.3182C84.3914 75.2153 85.3677 73.2523 86.3725 71.3023C86.9034 70.2741 87.7943 69.7588 88.9389 69.8313C90.0706 69.9038 90.9071 70.4891 91.3189 71.5819C91.6322 72.4107 91.5053 73.2057 91.1091 73.9878C89.6433 76.8805 88.2008 79.7836 86.7195 82.6659C86.458 83.1735 86.4606 83.5646 86.7221 84.0773C88.2267 87.0089 89.7029 89.9534 91.1635 92.9083C91.9274 94.4543 91.3137 96.1091 89.8013 96.7255C88.4469 97.2771 87.0148 96.7048 86.2974 95.2986C85.3237 93.3899 84.3681 91.4736 83.3374 89.4329C82.4594 91.1706 81.6359 92.8021 80.8124 94.4336C80.644 94.7677 80.4861 95.1095 80.3048 95.4384C79.546 96.811 77.9974 97.316 76.6533 96.6374C75.3248 95.9693 74.7809 94.3896 75.4698 92.9911C76.9382 90.0104 78.435 87.0426 79.95 84.0851C80.209 83.5775 80.2142 83.1787 79.9552 82.6711C78.4506 79.7396 76.9692 76.795 75.5035 73.8428C74.9389 72.7085 75.1021 71.569 75.8842 70.7014C76.6145 69.8909 77.8316 69.5154 78.8105 70.0255C79.4321 70.3492 80.0355 70.919 80.3773 71.5302C81.4106 73.374 82.3118 75.2904 83.3348 77.3208L83.3322 77.3182Z" fill="#00BFFE"/>
<path d="M116.076 64.5236C115.962 64.9353 115.877 65.3549 115.734 65.7563C111.293 78.1247 106.849 90.4906 102.4 102.857C101.747 104.667 100.276 105.47 98.7252 104.877C97.3164 104.338 96.6456 102.825 97.1843 101.3C98.1632 98.5239 99.1706 95.7581 100.168 92.9871C103.661 83.2653 107.152 73.5409 110.651 63.8192C111.42 61.68 113.696 60.9523 115.154 62.444C115.657 62.9568 115.885 63.7415 116.237 64.4018C116.185 64.4433 116.131 64.4821 116.079 64.5236H116.076Z" fill="#00BFFE"/>
<path d="M143.349 83.3191C143.349 79.6935 143.336 76.0679 143.356 72.4423C143.364 71.1138 144.346 70.0416 145.651 69.8318C146.876 69.635 148.165 70.3912 148.582 71.5929C148.701 71.9399 148.748 72.3283 148.748 72.6961C148.758 79.8126 148.761 86.9292 148.751 94.0457C148.751 95.7497 147.64 96.8944 146.044 96.8944C144.452 96.8944 143.354 95.742 143.349 94.0327C143.341 90.4615 143.346 86.8903 143.346 83.3165H143.349V83.3191Z" fill="#00BFFE"/>
<path d="M196 99.5C196 152.795 152.795 196 99.5 196C46.2045 196 3 152.795 3 99.5C3 46.2045 46.2045 3 99.5 3C152.795 3 196 46.2045 196 99.5ZM9.8205 99.5C9.8205 149.029 49.9714 189.179 99.5 189.179C149.029 189.179 189.179 149.029 189.179 99.5C189.179 49.9714 149.029 9.8205 99.5 9.8205C49.9714 9.8205 9.8205 49.9714 9.8205 99.5Z" fill="#00BFFE"/>
</svg>
