<svg width="200" height="200" viewBox="0 0 200 200" fill="none" xmlns="http://www.w3.org/2000/svg">
<rect width="200" height="200" rx="100" fill="#333333"/>
<path d="M170 144.766C169.91 144.882 169.768 144.998 169.742 145.127C168.892 148.888 166.625 151.426 163.095 152.882C161.704 153.461 160.261 153.68 158.767 153.68C119.606 153.68 80.4574 153.68 41.2961 153.68C37.4702 153.68 34.3399 152.16 32.0598 149.043C31.1709 147.832 30.5912 146.467 30.2949 144.959C29.8183 142.46 30.0502 139.948 30.1017 137.449C30.1532 135.105 32.575 132.554 34.9196 132.077C35.7311 131.91 36.5813 131.858 37.4058 131.82C38.1916 131.781 38.9774 131.82 39.8662 131.82C39.8662 131.433 39.8662 131.124 39.8662 130.802C39.8662 111.801 39.8662 92.7873 39.8662 73.7864C39.8662 70.3598 41.3863 67.7963 44.5682 66.4179C45.5214 66.0057 46.6293 65.7996 47.6727 65.7867C52.0268 65.7223 56.3938 65.761 60.7608 65.761C62.165 65.761 61.9588 65.8898 61.9717 64.5887C61.9846 60.9045 61.9202 57.2202 62.0104 53.536C62.0877 50.3928 64.4064 47.5716 67.292 46.5282C68.3998 46.1288 69.5206 46 70.6928 46C90.544 46 110.382 46.0258 130.233 46C134.278 46 137.666 48.731 138.465 52.5183C138.607 53.2139 138.607 53.9611 138.607 54.6825C138.62 58.1091 138.632 61.5357 138.607 64.9623C138.607 65.6064 138.787 65.8125 139.431 65.7996C143.631 65.7738 147.83 65.7738 152.03 65.7996C153.331 65.7996 154.632 65.98 155.817 66.5725C157.968 67.6546 159.411 69.3293 159.901 71.7124C160.068 72.5498 160.145 73.4129 160.145 74.2759C160.158 93.1223 160.145 111.969 160.145 130.802C160.145 131.124 160.145 131.446 160.145 131.897C161.176 131.897 162.142 131.897 163.108 131.897C164.448 131.91 165.736 132.168 166.883 132.915C168.274 133.816 169.304 135.002 169.717 136.65C169.742 136.766 169.884 136.844 169.974 136.947V144.779L170 144.766ZM66.4031 61.8835V62.7595C66.4031 70.4114 66.4031 78.0632 66.4031 85.7023C66.4031 92.1819 66.4031 98.6744 66.4031 105.154C66.4031 105.618 66.416 106.094 66.5448 106.532C67.0472 108.181 68.4514 109.199 70.345 109.16C73.3079 109.096 76.2707 109.147 79.2336 109.147C96.0703 109.147 112.907 109.147 129.744 109.147C130.388 109.147 131.058 109.109 131.676 108.954C133.08 108.594 134.175 107.048 134.175 105.425C134.175 91.1256 134.175 76.8395 134.175 62.5405C134.175 62.3343 134.149 62.1282 134.137 61.8964H66.4031V61.8835ZM155.74 131.871V130.982C155.74 111.956 155.74 92.9291 155.74 73.8895C155.74 73.6834 155.74 73.4644 155.74 73.2583C155.714 71.8541 154.451 70.2568 152.712 70.2696C148.255 70.3083 143.798 70.2825 139.354 70.2696C138.761 70.2696 138.645 70.4886 138.658 71.0168C138.684 72.1633 138.658 73.2969 138.658 74.4434C138.658 75.2507 139.075 75.6543 139.908 75.6543C142.407 75.6543 144.893 75.6414 147.392 75.6672C147.985 75.6672 148.616 75.7316 149.144 75.9635C150.059 76.3757 150.329 77.213 150.329 78.2049C150.316 93.4314 150.329 108.658 150.329 123.884C150.329 124.026 150.329 124.168 150.329 124.31C150.303 125.121 149.969 125.804 149.234 126.113C148.655 126.358 147.985 126.448 147.353 126.448C115.96 126.461 84.5796 126.461 53.1862 126.448C52.7611 126.448 52.3489 126.435 51.9367 126.384C51.7177 126.358 51.4858 126.281 51.2797 126.177C50.3522 125.714 50.043 124.915 50.043 123.936C50.043 108.658 50.043 93.3799 50.043 78.1148C50.043 77.9473 50.043 77.7927 50.0559 77.6253C50.1589 76.6076 50.919 75.8347 51.9367 75.7316C52.4262 75.6801 52.9157 75.6543 53.4052 75.6414C55.9687 75.6414 58.5322 75.6414 61.0958 75.6414C61.7141 75.6414 62.0233 75.4868 61.9975 74.7655C61.9331 73.4901 61.9717 72.2019 61.9975 70.9137C61.9975 70.45 61.8944 70.2568 61.3792 70.2568C56.6515 70.2696 51.9109 70.2568 47.1832 70.2954C46.7323 70.2954 46.2428 70.4886 45.8435 70.7205C44.6326 71.4419 44.3234 72.6013 44.3234 73.9281C44.3234 92.8389 44.3234 111.75 44.3234 130.66C44.3234 131.858 44.0787 131.833 45.4699 131.833C59.2536 131.833 73.0373 131.833 86.8211 131.833C87.0787 131.833 87.3363 131.833 87.594 131.833C89.0368 131.858 90.0158 133.056 89.9643 134.293C89.9127 135.556 89.9643 136.805 89.9643 138.068C89.9643 139.034 90.0158 139.072 91.0077 139.072C93.7387 139.072 96.4697 139.072 99.1878 139.072C102.524 139.072 105.861 139.072 109.197 139.072C110.073 139.072 110.163 138.982 110.163 138.119C110.163 136.792 110.163 135.465 110.163 134.126C110.163 133.881 110.202 133.61 110.292 133.378C110.756 132.168 111.722 131.807 112.946 131.807C126.845 131.807 140.745 131.807 154.645 131.807C154.993 131.807 155.34 131.807 155.791 131.807L155.74 131.871ZM99.9736 149.288C119.374 149.288 138.774 149.288 158.187 149.288C158.561 149.288 158.934 149.301 159.308 149.288C162.786 149.082 165.272 146.634 165.581 143.246C165.723 141.674 165.633 140.077 165.607 138.493C165.594 137.552 164.873 136.638 164.074 136.496C163.598 136.406 163.108 136.341 162.619 136.341C146.993 136.341 131.367 136.341 115.741 136.341C115.574 136.341 115.419 136.341 115.252 136.341C114.762 136.341 114.53 136.535 114.556 137.05C114.595 137.63 114.569 138.222 114.556 138.802C114.479 141.481 112.443 143.542 109.764 143.542C103.284 143.568 96.7917 143.568 90.3121 143.542C88.4184 143.542 86.9885 142.628 86.0353 140.953C85.3654 139.755 85.4813 138.467 85.52 137.204C85.5329 136.509 85.301 136.264 84.644 136.341C84.5281 136.354 84.4121 136.341 84.2962 136.341C68.6961 136.341 53.096 136.341 37.496 136.341C37.2126 136.341 36.9292 136.341 36.6586 136.367C35.1386 136.547 34.43 137.359 34.43 138.905C34.43 140.257 34.3785 141.61 34.4429 142.963C34.5073 144.315 34.9067 145.578 35.744 146.673C37.161 148.515 39.0547 149.313 41.3477 149.313C60.8896 149.313 80.4316 149.313 99.9736 149.313V149.288ZM145.885 80.1759C145.576 80.1501 145.305 80.1244 145.035 80.1244C143.218 80.1244 141.402 80.1244 139.573 80.1244C138.937 80.1244 138.62 80.4464 138.62 81.0905C138.62 88.9743 138.62 96.8581 138.62 104.742C138.62 105.322 138.62 105.914 138.555 106.494C138.233 109.083 136.919 111.054 134.729 112.445C133.209 113.411 131.522 113.63 129.757 113.63C110.125 113.63 90.4795 113.63 70.8474 113.63C70.3064 113.63 69.7782 113.63 69.2372 113.579C67.0601 113.399 65.321 112.368 63.9169 110.758C62.4741 109.109 61.9331 107.151 61.9331 104.987C61.9588 96.9869 61.9331 88.9872 61.9588 80.9875C61.9588 80.3562 61.7785 80.1244 61.1344 80.1372C59.1763 80.1759 57.2183 80.1759 55.2602 80.1372C54.5775 80.1244 54.41 80.3434 54.41 81.0003C54.4229 94.4105 54.4229 107.821 54.4229 121.231V121.978H145.898V80.2017L145.885 80.1759ZM66.3001 57.3748H134.188C134.188 56.2154 134.24 55.1204 134.162 54.0384C134.124 53.4844 133.969 52.8919 133.711 52.4152C132.913 50.9209 131.547 50.4443 129.924 50.4443C110.176 50.4443 90.4151 50.4443 70.6671 50.4443C70.4867 50.4443 70.2935 50.4443 70.1131 50.4443C68.4385 50.586 67.073 51.2816 66.6865 52.982C66.3645 54.3733 66.416 55.8547 66.3001 57.3619V57.3748Z" fill="#00BFFE"/>
<path d="M89.5005 74.1469C89.23 74.6107 89.0368 75.1388 88.689 75.5124C85.7776 78.6556 82.8534 81.7731 79.9034 84.8776C79.4397 85.3671 79.4655 85.6505 79.9034 86.1272C82.4412 88.7809 84.9661 91.4603 87.478 94.1398C87.916 94.6035 88.3669 95.0673 88.7791 95.5568C90.0544 97.0382 88.9208 98.5454 87.7357 99.022C86.718 99.4343 85.9837 99.022 85.3268 98.3264C83.5104 96.407 81.7069 94.4618 79.9034 92.5424C78.2417 90.7776 76.5928 89.0127 74.9181 87.2737C73.8103 86.1272 73.7587 84.9549 74.8537 83.7827C78.3447 80.0598 81.8358 76.3498 85.3525 72.6397C86.0353 71.9184 86.8468 71.5577 87.8516 71.9828C88.6374 72.3177 89.3331 73.271 89.4876 74.1469H89.5005Z" fill="#00BFFE"/>
<path d="M110.086 96.6899C110.292 96.355 110.524 95.8268 110.897 95.4274C113.77 92.3229 116.656 89.2312 119.58 86.1782C120.057 85.6887 120.082 85.4053 119.593 84.89C116.681 81.837 113.809 78.7324 110.91 75.6665C109.751 74.4427 110.047 73.425 110.91 72.5233C111.722 71.686 113.126 71.5829 114.157 72.7036C117.364 76.156 120.623 79.5826 123.831 83.0221C124.346 83.5631 124.836 84.1557 125.209 84.7869C125.75 85.7016 125.287 86.5002 124.668 87.1701C121.783 90.2489 118.884 93.3148 115.986 96.3807C115.2 97.2052 114.414 98.0296 113.577 98.7896C112.92 99.3822 112.16 99.3178 111.413 98.9056C110.614 98.4676 110.228 97.7849 110.073 96.6899H110.086Z" fill="#00BFFE"/>
<path d="M90.9433 96.9742C91.0979 96.5878 91.2009 96.1755 91.4071 95.8277C94.0607 91.2289 96.7402 86.63 99.3939 82.0311C100.978 79.2873 102.537 76.5305 104.109 73.7738C104.972 72.2408 106.453 71.9059 107.677 72.988C108.514 73.7222 108.656 74.7013 108.051 75.7576C106.08 79.1971 104.109 82.6495 102.125 86.0761C99.8834 89.9664 97.6291 93.8697 95.3747 97.76C95.0269 98.3655 94.6147 98.855 93.8804 99.0869C92.502 99.5377 90.9562 98.198 90.9304 96.9742H90.9433Z" fill="#00BFFE"/>
<path d="M88.6117 51.6289C89.127 51.732 89.668 51.7577 90.1318 51.9638C91.1623 52.4147 91.5488 53.3937 91.2782 54.566C91.0721 55.4549 90.2348 56.1376 89.23 56.1247C88.4957 56.1247 87.7228 56.1247 87.0401 55.9057C86.0353 55.5708 85.5458 54.4372 85.7905 53.4066C86.0224 52.4276 86.8597 51.7448 87.8774 51.732C88.1093 51.732 88.3412 51.732 88.573 51.732C88.573 51.6933 88.573 51.6676 88.5859 51.6289H88.6117Z" fill="#00BFFE"/>
<path d="M71.7234 51.72C72.754 51.604 73.733 51.8745 74.2096 53.0597C74.8279 54.6184 73.8103 56.0998 72.1485 56.1256C71.8264 56.1256 71.4915 56.1256 71.1695 56.1256C69.6623 56.1256 68.8765 55.3012 68.7992 53.897C68.7477 52.7634 69.804 51.5267 71.1695 51.7071C71.3112 51.72 71.4529 51.7071 71.7105 51.7071L71.7234 51.72Z" fill="#00BFFE"/>
<path d="M79.9292 56.1372C78.9244 56.2402 77.9454 55.9826 77.4945 54.8232C76.9277 53.3804 77.7264 51.7702 79.3624 51.7316C80.058 51.7187 80.7923 51.6543 81.4364 51.8475C82.57 52.1953 83.0982 53.316 82.789 54.5785C82.57 55.4544 81.7713 56.2016 80.6248 56.1372C80.4445 56.1372 80.2513 56.1372 79.9421 56.1372H79.9292Z" fill="#00BFFE"/>
<path d="M196 99.5C196 152.795 152.795 196 99.5 196C46.2045 196 3 152.795 3 99.5C3 46.2045 46.2045 3 99.5 3C152.795 3 196 46.2045 196 99.5ZM9.8205 99.5C9.8205 149.029 49.9714 189.179 99.5 189.179C149.029 189.179 189.179 149.029 189.179 99.5C189.179 49.9714 149.029 9.8205 99.5 9.8205C49.9714 9.8205 9.8205 49.9714 9.8205 99.5Z" fill="#00BFFE"/>
</svg>
